<mxfile host="Electron" agent="Mozilla/5.0 (Windows NT 10.0; Win64; x64) AppleWebKit/537.36 (KHTML, like Gecko) draw.io/28.2.5 Chrome/138.0.7204.251 Electron/37.6.1 Safari/537.36" version="28.2.5" pages="5">
  <diagram name="Plumbing View" id="qtGz52rhQTPplnbjfSBV">
    <mxGraphModel dx="1412" dy="827" grid="1" gridSize="10" guides="1" tooltips="1" connect="1" arrows="1" fold="1" page="1" pageScale="1" pageWidth="1169" pageHeight="827" math="0" shadow="0">
      <root>
        <mxCell id="0" />
        <mxCell id="1" parent="0" />
        <mxCell id="54yuC4Lk0FtonxKzlv9x-87" value="Sea Water&lt;br&gt;Intake Seacock" style="rounded=1;whiteSpace=wrap;html=1;fillColor=#ffe6cc;strokeColor=#d79b00;" vertex="1" parent="1">
          <mxGeometry x="63" y="684" width="120" height="60" as="geometry" />
        </mxCell>
        <mxCell id="54yuC4Lk0FtonxKzlv9x-88" value="Pressurized&lt;br&gt;Freshwater&lt;br&gt;System" style="rounded=1;whiteSpace=wrap;html=1;fillColor=#b1ddf0;strokeColor=#10739e;" vertex="1" parent="1">
          <mxGeometry x="213" y="684" width="120" height="60" as="geometry" />
        </mxCell>
        <mxCell id="54yuC4Lk0FtonxKzlv9x-89" value="Danfoss App&lt;div&gt;High Pressure&lt;br&gt;Pump&lt;/div&gt;" style="rounded=1;whiteSpace=wrap;html=1;fillColor=#dae8fc;strokeColor=#6c8ebf;" vertex="1" parent="1">
          <mxGeometry x="530" y="268" width="110" height="60" as="geometry" />
        </mxCell>
        <mxCell id="54yuC4Lk0FtonxKzlv9x-90" value="Pickling Bucket" style="rounded=1;whiteSpace=wrap;html=1;fillColor=#e1d5e7;strokeColor=#9673a6;" vertex="1" parent="1">
          <mxGeometry x="43" y="195" width="120" height="60" as="geometry" />
        </mxCell>
        <mxCell id="54yuC4Lk0FtonxKzlv9x-93" value="Solenoid Valve&lt;br&gt;or motorized ball valve" style="rounded=1;whiteSpace=wrap;html=1;fillColor=#d5e8d4;strokeColor=#82b366;fontSize=9;" vertex="1" parent="1">
          <mxGeometry x="233" y="384" width="80" height="60" as="geometry" />
        </mxCell>
        <mxCell id="54yuC4Lk0FtonxKzlv9x-94" value="" style="endArrow=none;html=1;rounded=0;strokeColor=#0000FF;strokeWidth=4;exitX=0.5;exitY=1;exitDx=0;exitDy=0;entryX=0.5;entryY=0;entryDx=0;entryDy=0;" edge="1" parent="1" source="54yuC4Lk0FtonxKzlv9x-93" target="54yuC4Lk0FtonxKzlv9x-105">
          <mxGeometry width="50" height="50" relative="1" as="geometry">
            <mxPoint x="273" y="484" as="sourcePoint" />
            <mxPoint x="273" y="524" as="targetPoint" />
          </mxGeometry>
        </mxCell>
        <mxCell id="54yuC4Lk0FtonxKzlv9x-95" value="Reverse&lt;br&gt;Osmosis&lt;br&gt;Membrane" style="rounded=1;whiteSpace=wrap;html=1;fillColor=#dae8fc;strokeColor=#6c8ebf;" vertex="1" parent="1">
          <mxGeometry x="662" y="319" width="147" height="60" as="geometry" />
        </mxCell>
        <mxCell id="54yuC4Lk0FtonxKzlv9x-97" value="High Pressure Sensor&lt;br style=&quot;font-size: 9px;&quot;&gt;0-1000psi" style="rounded=1;whiteSpace=wrap;html=1;fillColor=#d5e8d4;strokeColor=#82b366;fontSize=9;" vertex="1" parent="1">
          <mxGeometry x="450" y="421" width="100" height="50" as="geometry" />
        </mxCell>
        <mxCell id="54yuC4Lk0FtonxKzlv9x-99" value="Divert Valve&lt;br&gt;3-Way Valve&lt;br&gt;with 3D Printed&lt;br&gt;Servo Mount" style="rounded=1;whiteSpace=wrap;html=1;fillColor=#d5e8d4;strokeColor=#82b366;" vertex="1" parent="1">
          <mxGeometry x="888" y="592" width="120" height="75" as="geometry" />
        </mxCell>
        <mxCell id="54yuC4Lk0FtonxKzlv9x-100" value="TDS Sensor - Human&lt;br&gt;+&lt;br&gt;TDS Sensor - Digital&lt;br&gt;+&lt;br&gt;Product Flowmeter" style="rounded=1;whiteSpace=wrap;html=1;fillColor=#d5e8d4;strokeColor=#82b366;fontSize=9;" vertex="1" parent="1">
          <mxGeometry x="1018" y="346" width="100" height="68" as="geometry" />
        </mxCell>
        <mxCell id="54yuC4Lk0FtonxKzlv9x-101" value="Waste Brine&lt;br&gt;Through-hull" style="rounded=1;whiteSpace=wrap;html=1;fillColor=#60a917;fontColor=#ffffff;strokeColor=#2D7600;" vertex="1" parent="1">
          <mxGeometry x="687" y="710" width="105" height="60" as="geometry" />
        </mxCell>
        <mxCell id="54yuC4Lk0FtonxKzlv9x-103" value="Motor&amp;nbsp;&lt;br style=&quot;font-size: 9px;&quot;&gt;Mounted on&lt;br style=&quot;font-size: 9px;&quot;&gt;Pressure Valve&lt;br style=&quot;font-size: 9px;&quot;&gt;w/ 3D printed adapter" style="rounded=1;whiteSpace=wrap;html=1;fillColor=#d5e8d4;strokeColor=#82b366;fontSize=9;" vertex="1" parent="1">
          <mxGeometry x="680" y="410" width="111" height="60" as="geometry" />
        </mxCell>
        <mxCell id="54yuC4Lk0FtonxKzlv9x-104" value="Freshwater&lt;br&gt;Tank" style="rounded=1;whiteSpace=wrap;html=1;fillColor=#b1ddf0;strokeColor=#10739e;" vertex="1" parent="1">
          <mxGeometry x="908" y="684" width="80" height="60" as="geometry" />
        </mxCell>
        <mxCell id="54yuC4Lk0FtonxKzlv9x-105" value="10&quot; Carbon Filter" style="rounded=1;whiteSpace=wrap;html=1;fontSize=9;fillColor=#f5f5f5;fontColor=#333333;strokeColor=#666666;" vertex="1" parent="1">
          <mxGeometry x="233" y="481" width="80" height="60" as="geometry" />
        </mxCell>
        <mxCell id="54yuC4Lk0FtonxKzlv9x-106" value="Shutoff Valve" style="rounded=1;whiteSpace=wrap;html=1;fontSize=9;fillColor=#f5f5f5;fontColor=#333333;strokeColor=#666666;" vertex="1" parent="1">
          <mxGeometry x="233" y="603.5" width="80" height="33" as="geometry" />
        </mxCell>
        <mxCell id="54yuC4Lk0FtonxKzlv9x-107" value="&lt;span style=&quot;font-size: 40px;&quot;&gt;Aqua-O-M&lt;/span&gt;&lt;span style=&quot;color: rgba(0, 0, 0, 0); font-family: monospace; font-size: 0px; text-align: start; text-wrap-mode: nowrap;&quot;&gt;%3CmxGraphModel%3E%3Croot%3E%3CmxCell%20id%3D%220%22%2F%3E%3CmxCell%20id%3D%221%22%20parent%3D%220%22%2F%3E%3CmxCell%20id%3D%222%22%20value%3D%22%22%20style%3D%22endArrow%3Dnone%3Bhtml%3D1%3BentryX%3D1%3BentryY%3D1%3BentryDx%3D0%3BentryDy%3D0%3Bmovable%3D0%3Bresizable%3D0%3Brotatable%3D0%3Bdeletable%3D0%3Beditable%3D0%3Bconnectable%3D0%3B%22%20edge%3D%221%22%20parent%3D%221%22%3E%3CmxGeometry%20width%3D%2250%22%20height%3D%2250%22%20relative%3D%221%22%20as%3D%22geometry%22%3E%3CmxPoint%20x%3D%229%22%20y%3D%22813%22%20as%3D%22sourcePoint%22%2F%3E%3CmxPoint%20x%3D%221155%22%20y%3D%22813%22%20as%3D%22targetPoint%22%2F%3E%3C%2FmxGeometry%3E%3C%2FmxCell%3E%3C%2Froot%3E%3C%2FmxGraphModel%3E&lt;/span&gt;&lt;span style=&quot;font-size: 40px;&quot;&gt;atic - Plumbing Schematic&lt;/span&gt;" style="text;html=1;strokeColor=none;fillColor=none;align=center;verticalAlign=middle;whiteSpace=wrap;rounded=0;fontSize=40;perimeterSpacing=0;fontStyle=4" vertex="1" parent="1">
          <mxGeometry x="152" y="50" width="865" height="30" as="geometry" />
        </mxCell>
        <mxCell id="54yuC4Lk0FtonxKzlv9x-108" value="" style="endArrow=none;html=1;rounded=1;exitX=0.5;exitY=0;exitDx=0;exitDy=0;entryX=0.5;entryY=1;entryDx=0;entryDy=0;strokeColor=#FF8000;strokeWidth=4;startArrow=none;" edge="1" parent="1" target="54yuC4Lk0FtonxKzlv9x-109">
          <mxGeometry width="50" height="50" relative="1" as="geometry">
            <mxPoint x="123" y="562" as="sourcePoint" />
            <mxPoint x="257" y="432" as="targetPoint" />
          </mxGeometry>
        </mxCell>
        <mxCell id="54yuC4Lk0FtonxKzlv9x-109" value="Sea Water&lt;br&gt;Strainer" style="rounded=1;whiteSpace=wrap;html=1;fillColor=#ffe6cc;strokeColor=#d79b00;" vertex="1" parent="1">
          <mxGeometry x="63" y="590" width="120" height="60" as="geometry" />
        </mxCell>
        <mxCell id="54yuC4Lk0FtonxKzlv9x-110" value="Manual&lt;div&gt;&amp;nbsp;3-Way&lt;br&gt;Selector&lt;br&gt;Valve&lt;/div&gt;" style="rounded=1;whiteSpace=wrap;html=1;fillColor=#f5f5f5;strokeColor=#666666;fontColor=#333333;" vertex="1" parent="1">
          <mxGeometry x="63" y="478" width="120" height="70" as="geometry" />
        </mxCell>
        <mxCell id="54yuC4Lk0FtonxKzlv9x-111" value="" style="endArrow=none;html=1;rounded=1;exitX=0.5;exitY=0;exitDx=0;exitDy=0;entryX=0.5;entryY=1;entryDx=0;entryDy=0;strokeColor=#FF8000;strokeWidth=4;" edge="1" parent="1" source="54yuC4Lk0FtonxKzlv9x-87" target="54yuC4Lk0FtonxKzlv9x-109">
          <mxGeometry width="50" height="50" relative="1" as="geometry">
            <mxPoint x="123" y="601.9999999999998" as="sourcePoint" />
            <mxPoint x="123" y="602" as="targetPoint" />
          </mxGeometry>
        </mxCell>
        <mxCell id="54yuC4Lk0FtonxKzlv9x-113" value="3-Way Tee" style="rounded=1;whiteSpace=wrap;html=1;fillColor=#f5f5f5;strokeColor=#666666;fontColor=#333333;fontSize=8;" vertex="1" parent="1">
          <mxGeometry x="140" y="278" width="80" height="40" as="geometry" />
        </mxCell>
        <mxCell id="54yuC4Lk0FtonxKzlv9x-114" value="" style="endArrow=none;html=1;rounded=0;strokeColor=#0000FF;strokeWidth=4;exitX=0.5;exitY=1;exitDx=0;exitDy=0;entryX=0.5;entryY=0;entryDx=0;entryDy=0;edgeStyle=orthogonalEdgeStyle;" edge="1" parent="1" source="54yuC4Lk0FtonxKzlv9x-113" target="54yuC4Lk0FtonxKzlv9x-93">
          <mxGeometry width="50" height="50" relative="1" as="geometry">
            <mxPoint x="283" y="518" as="sourcePoint" />
            <mxPoint x="273" y="354" as="targetPoint" />
          </mxGeometry>
        </mxCell>
        <mxCell id="54yuC4Lk0FtonxKzlv9x-117" value="10&quot;&amp;nbsp;&lt;br&gt;20 Micron&lt;br&gt;Filter" style="rounded=1;whiteSpace=wrap;html=1;fillColor=#f5f5f5;strokeColor=#666666;fontSize=9;fontColor=#333333;" vertex="1" parent="1">
          <mxGeometry x="371.5" y="268" width="60" height="60" as="geometry" />
        </mxCell>
        <mxCell id="54yuC4Lk0FtonxKzlv9x-131" value="Boost Pump&lt;div&gt;Shurflo&lt;/div&gt;" style="rounded=1;whiteSpace=wrap;html=1;fillColor=#dae8fc;strokeColor=#6c8ebf;arcSize=3;" vertex="1" parent="1">
          <mxGeometry x="240" y="268" width="110" height="60" as="geometry" />
        </mxCell>
        <mxCell id="54yuC4Lk0FtonxKzlv9x-132" value="" style="endArrow=none;html=1;rounded=1;entryX=0.5;entryY=0;entryDx=0;entryDy=0;strokeColor=#FF8000;strokeWidth=4;startArrow=none;exitX=0.5;exitY=1;exitDx=0;exitDy=0;" edge="1" parent="1" source="54yuC4Lk0FtonxKzlv9x-110" target="54yuC4Lk0FtonxKzlv9x-109">
          <mxGeometry width="50" height="50" relative="1" as="geometry">
            <mxPoint x="172" y="533" as="sourcePoint" />
            <mxPoint x="133" y="367" as="targetPoint" />
          </mxGeometry>
        </mxCell>
        <mxCell id="54yuC4Lk0FtonxKzlv9x-134" value="Low Pressure Sensor&lt;br style=&quot;font-size: 9px;&quot;&gt;0-50psi" style="rounded=1;whiteSpace=wrap;html=1;fillColor=#d5e8d4;strokeColor=#82b366;fontSize=9;" vertex="1" parent="1">
          <mxGeometry x="308" y="128" width="123" height="60" as="geometry" />
        </mxCell>
        <mxCell id="54yuC4Lk0FtonxKzlv9x-136" value="" style="endArrow=none;html=1;rounded=0;strokeColor=#0000FF;strokeWidth=4;entryX=0.5;entryY=1;entryDx=0;entryDy=0;exitX=0.5;exitY=0;exitDx=0;exitDy=0;" edge="1" parent="1" source="54yuC4Lk0FtonxKzlv9x-106" target="54yuC4Lk0FtonxKzlv9x-105">
          <mxGeometry width="50" height="50" relative="1" as="geometry">
            <mxPoint x="273" y="590" as="sourcePoint" />
            <mxPoint x="283" y="448" as="targetPoint" />
          </mxGeometry>
        </mxCell>
        <mxCell id="54yuC4Lk0FtonxKzlv9x-138" value="" style="endArrow=none;html=1;rounded=0;strokeColor=#0000FF;strokeWidth=4;exitX=0.5;exitY=0;exitDx=0;exitDy=0;entryX=0.5;entryY=1;entryDx=0;entryDy=0;" edge="1" parent="1" source="54yuC4Lk0FtonxKzlv9x-88" target="54yuC4Lk0FtonxKzlv9x-106">
          <mxGeometry width="50" height="50" relative="1" as="geometry">
            <mxPoint x="283" y="571.0000000000002" as="sourcePoint" />
            <mxPoint x="283" y="603" as="targetPoint" />
          </mxGeometry>
        </mxCell>
        <mxCell id="54yuC4Lk0FtonxKzlv9x-139" value="High Pressure&lt;br&gt;Needle Valve" style="rounded=1;whiteSpace=wrap;html=1;fillColor=#dae8fc;strokeColor=#6c8ebf;" vertex="1" parent="1">
          <mxGeometry x="688" y="470" width="100" height="60" as="geometry" />
        </mxCell>
        <mxCell id="54yuC4Lk0FtonxKzlv9x-141" value="High Pressure&lt;br&gt;Analog Gauge&lt;div&gt;(backup)&lt;/div&gt;" style="rounded=1;whiteSpace=wrap;html=1;fillColor=#dae8fc;strokeColor=#6c8ebf;" vertex="1" parent="1">
          <mxGeometry x="450" y="366" width="100" height="50" as="geometry" />
        </mxCell>
        <mxCell id="54yuC4Lk0FtonxKzlv9x-143" value="GD 20 VFD" style="rounded=1;whiteSpace=wrap;html=1;fillColor=#d5e8d4;strokeColor=#82b366;" vertex="1" parent="1">
          <mxGeometry x="540" y="188" width="90" height="40" as="geometry" />
        </mxCell>
        <mxCell id="54yuC4Lk0FtonxKzlv9x-148" value="Product&lt;br&gt;Water&lt;br&gt;Sample&lt;br&gt;Valve" style="rounded=1;whiteSpace=wrap;html=1;fillColor=#1ba1e2;strokeColor=#006EAF;fontColor=#ffffff;" vertex="1" parent="1">
          <mxGeometry x="1040" y="477" width="95" height="71" as="geometry" />
        </mxCell>
        <mxCell id="54yuC4Lk0FtonxKzlv9x-149" value="Product Water&lt;br&gt;Analog&lt;br&gt;Flow Meter" style="rounded=1;whiteSpace=wrap;html=1;fillColor=#dae8fc;strokeColor=#6c8ebf;" vertex="1" parent="1">
          <mxGeometry x="1018" y="264" width="100" height="60" as="geometry" />
        </mxCell>
        <mxCell id="54yuC4Lk0FtonxKzlv9x-157" value="Low Pressure&lt;br&gt;Analog Gauge&lt;div&gt;(backup)&lt;/div&gt;" style="rounded=1;whiteSpace=wrap;html=1;fillColor=#dae8fc;strokeColor=#6c8ebf;" vertex="1" parent="1">
          <mxGeometry x="308" y="200" width="123" height="50" as="geometry" />
        </mxCell>
        <mxCell id="54yuC4Lk0FtonxKzlv9x-161" value="Optional&lt;br&gt;Brine&lt;br&gt;Flowmeter" style="rounded=1;whiteSpace=wrap;html=1;fillColor=#d5e8d4;strokeColor=#82b366;fontSize=9;" vertex="1" parent="1">
          <mxGeometry x="592" y="541" width="70" height="54.5" as="geometry" />
        </mxCell>
        <mxCell id="xGo9mAzhHRWblN-cc9xw-13" value="Solenoid Valve&lt;br&gt;or motorized ball valve" style="rounded=1;whiteSpace=wrap;html=1;fillColor=#d5e8d4;strokeColor=#82b366;fontSize=9;" vertex="1" parent="1">
          <mxGeometry x="83" y="386.5" width="80" height="60" as="geometry" />
        </mxCell>
        <mxCell id="xGo9mAzhHRWblN-cc9xw-14" value="Reverse&lt;br&gt;Osmosis&lt;br&gt;Membrane" style="rounded=1;whiteSpace=wrap;html=1;fillColor=#dae8fc;strokeColor=#6c8ebf;" vertex="1" parent="1">
          <mxGeometry x="662" y="233" width="147" height="60" as="geometry" />
        </mxCell>
        <mxCell id="xGo9mAzhHRWblN-cc9xw-15" value="" style="endArrow=none;html=1;rounded=0;entryX=0.5;entryY=1;entryDx=0;entryDy=0;strokeWidth=4;strokeColor=#FF8000;" edge="1" parent="1" source="54yuC4Lk0FtonxKzlv9x-110" target="xGo9mAzhHRWblN-cc9xw-13">
          <mxGeometry width="50" height="50" relative="1" as="geometry">
            <mxPoint x="470" y="470" as="sourcePoint" />
            <mxPoint x="520" y="420" as="targetPoint" />
          </mxGeometry>
        </mxCell>
        <mxCell id="xGo9mAzhHRWblN-cc9xw-16" value="" style="endArrow=none;html=1;rounded=0;entryX=0;entryY=0.5;entryDx=0;entryDy=0;exitX=0.5;exitY=0;exitDx=0;exitDy=0;edgeStyle=orthogonalEdgeStyle;strokeWidth=4;strokeColor=#FF8000;" edge="1" parent="1" source="xGo9mAzhHRWblN-cc9xw-13" target="54yuC4Lk0FtonxKzlv9x-113">
          <mxGeometry width="50" height="50" relative="1" as="geometry">
            <mxPoint x="470" y="470" as="sourcePoint" />
            <mxPoint x="520" y="420" as="targetPoint" />
          </mxGeometry>
        </mxCell>
        <mxCell id="xGo9mAzhHRWblN-cc9xw-19" value="" style="endArrow=none;html=1;rounded=0;entryX=0.5;entryY=1;entryDx=0;entryDy=0;exitX=0;exitY=0.5;exitDx=0;exitDy=0;edgeStyle=orthogonalEdgeStyle;strokeWidth=4;strokeColor=#00FFFF;" edge="1" parent="1" source="54yuC4Lk0FtonxKzlv9x-110" target="54yuC4Lk0FtonxKzlv9x-90">
          <mxGeometry width="50" height="50" relative="1" as="geometry">
            <mxPoint x="470" y="470" as="sourcePoint" />
            <mxPoint x="520" y="420" as="targetPoint" />
          </mxGeometry>
        </mxCell>
        <mxCell id="xGo9mAzhHRWblN-cc9xw-20" value="" style="endArrow=none;html=1;rounded=0;entryX=0;entryY=0.5;entryDx=0;entryDy=0;exitX=1;exitY=0.5;exitDx=0;exitDy=0;strokeWidth=4;strokeColor=#FF8000;" edge="1" parent="1" source="54yuC4Lk0FtonxKzlv9x-113" target="54yuC4Lk0FtonxKzlv9x-131">
          <mxGeometry width="50" height="50" relative="1" as="geometry">
            <mxPoint x="470" y="470" as="sourcePoint" />
            <mxPoint x="520" y="420" as="targetPoint" />
          </mxGeometry>
        </mxCell>
        <mxCell id="xGo9mAzhHRWblN-cc9xw-21" value="" style="endArrow=none;html=1;rounded=0;entryX=0;entryY=0.5;entryDx=0;entryDy=0;exitX=1;exitY=0.5;exitDx=0;exitDy=0;strokeWidth=4;strokeColor=#FF8000;" edge="1" parent="1" source="54yuC4Lk0FtonxKzlv9x-131" target="54yuC4Lk0FtonxKzlv9x-117">
          <mxGeometry width="50" height="50" relative="1" as="geometry">
            <mxPoint x="470" y="470" as="sourcePoint" />
            <mxPoint x="520" y="420" as="targetPoint" />
          </mxGeometry>
        </mxCell>
        <mxCell id="xGo9mAzhHRWblN-cc9xw-22" value="&lt;div&gt;10&quot;&lt;/div&gt;5 Micron&lt;br&gt;Filter" style="rounded=1;whiteSpace=wrap;html=1;fillColor=#f5f5f5;strokeColor=#666666;fontSize=9;fontColor=#333333;" vertex="1" parent="1">
          <mxGeometry x="450" y="268" width="60" height="60" as="geometry" />
        </mxCell>
        <mxCell id="xGo9mAzhHRWblN-cc9xw-23" value="" style="endArrow=none;html=1;rounded=0;entryX=0;entryY=0.5;entryDx=0;entryDy=0;exitX=1;exitY=0.5;exitDx=0;exitDy=0;strokeWidth=4;strokeColor=#FF8000;" edge="1" parent="1" source="54yuC4Lk0FtonxKzlv9x-117" target="xGo9mAzhHRWblN-cc9xw-22">
          <mxGeometry width="50" height="50" relative="1" as="geometry">
            <mxPoint x="470" y="470" as="sourcePoint" />
            <mxPoint x="520" y="420" as="targetPoint" />
          </mxGeometry>
        </mxCell>
        <mxCell id="xGo9mAzhHRWblN-cc9xw-24" value="" style="endArrow=none;html=1;rounded=0;entryX=1;entryY=0.5;entryDx=0;entryDy=0;edgeStyle=orthogonalEdgeStyle;strokeWidth=4;strokeColor=#FF8000;" edge="1" parent="1" target="54yuC4Lk0FtonxKzlv9x-134">
          <mxGeometry width="50" height="50" relative="1" as="geometry">
            <mxPoint x="431" y="300" as="sourcePoint" />
            <mxPoint x="520" y="420" as="targetPoint" />
            <Array as="points">
              <mxPoint x="441" y="300" />
              <mxPoint x="441" y="158" />
            </Array>
          </mxGeometry>
        </mxCell>
        <mxCell id="xGo9mAzhHRWblN-cc9xw-25" value="" style="endArrow=none;html=1;rounded=0;entryX=1;entryY=0.5;entryDx=0;entryDy=0;exitX=1;exitY=0.5;exitDx=0;exitDy=0;edgeStyle=orthogonalEdgeStyle;strokeWidth=4;strokeColor=#FF8000;" edge="1" parent="1" source="54yuC4Lk0FtonxKzlv9x-134" target="54yuC4Lk0FtonxKzlv9x-157">
          <mxGeometry width="50" height="50" relative="1" as="geometry">
            <mxPoint x="470" y="470" as="sourcePoint" />
            <mxPoint x="520" y="420" as="targetPoint" />
          </mxGeometry>
        </mxCell>
        <mxCell id="xGo9mAzhHRWblN-cc9xw-26" value="" style="endArrow=none;html=1;rounded=0;entryX=0;entryY=0.5;entryDx=0;entryDy=0;exitX=1;exitY=0.5;exitDx=0;exitDy=0;strokeColor=#FF8000;strokeWidth=4;" edge="1" parent="1" source="xGo9mAzhHRWblN-cc9xw-22" target="54yuC4Lk0FtonxKzlv9x-89">
          <mxGeometry width="50" height="50" relative="1" as="geometry">
            <mxPoint x="470" y="470" as="sourcePoint" />
            <mxPoint x="520" y="420" as="targetPoint" />
          </mxGeometry>
        </mxCell>
        <mxCell id="xGo9mAzhHRWblN-cc9xw-28" value="" style="endArrow=none;html=1;rounded=0;entryX=0;entryY=0.5;entryDx=0;entryDy=0;exitX=1;exitY=0.5;exitDx=0;exitDy=0;edgeStyle=orthogonalEdgeStyle;strokeWidth=4;strokeColor=#CC0066;" edge="1" parent="1" source="54yuC4Lk0FtonxKzlv9x-89" target="xGo9mAzhHRWblN-cc9xw-14">
          <mxGeometry width="50" height="50" relative="1" as="geometry">
            <mxPoint x="470" y="470" as="sourcePoint" />
            <mxPoint x="520" y="420" as="targetPoint" />
          </mxGeometry>
        </mxCell>
        <mxCell id="xGo9mAzhHRWblN-cc9xw-35" value="" style="endArrow=none;html=1;rounded=0;entryX=1;entryY=0.5;entryDx=0;entryDy=0;exitX=0;exitY=0.5;exitDx=0;exitDy=0;edgeStyle=orthogonalEdgeStyle;strokeWidth=4;strokeColor=#CC0066;" edge="1" parent="1" source="54yuC4Lk0FtonxKzlv9x-95" target="xGo9mAzhHRWblN-cc9xw-14">
          <mxGeometry width="50" height="50" relative="1" as="geometry">
            <mxPoint x="470" y="470" as="sourcePoint" />
            <mxPoint x="520" y="420" as="targetPoint" />
          </mxGeometry>
        </mxCell>
        <mxCell id="xGo9mAzhHRWblN-cc9xw-36" value="" style="endArrow=none;html=1;rounded=0;entryX=1;entryY=0.5;entryDx=0;entryDy=0;exitX=0;exitY=0.5;exitDx=0;exitDy=0;edgeStyle=orthogonalEdgeStyle;strokeWidth=4;strokeColor=#CC0066;" edge="1" parent="1" source="54yuC4Lk0FtonxKzlv9x-139" target="54yuC4Lk0FtonxKzlv9x-95">
          <mxGeometry width="50" height="50" relative="1" as="geometry">
            <mxPoint x="470" y="470" as="sourcePoint" />
            <mxPoint x="520" y="420" as="targetPoint" />
            <Array as="points">
              <mxPoint x="650" y="500" />
              <mxPoint x="650" y="390" />
              <mxPoint x="819" y="390" />
              <mxPoint x="819" y="349" />
            </Array>
          </mxGeometry>
        </mxCell>
        <mxCell id="xGo9mAzhHRWblN-cc9xw-37" value="Tee" style="rounded=1;whiteSpace=wrap;html=1;fillColor=#f5f5f5;strokeColor=#666666;fontColor=#333333;" vertex="1" parent="1">
          <mxGeometry x="698" y="602" width="82" height="55" as="geometry" />
        </mxCell>
        <mxCell id="xGo9mAzhHRWblN-cc9xw-38" value="Pressure Relief Valve&lt;br&gt;1000psi" style="rounded=1;whiteSpace=wrap;html=1;fillColor=#dae8fc;strokeColor=#6c8ebf;" vertex="1" parent="1">
          <mxGeometry x="450" y="480" width="100" height="50" as="geometry" />
        </mxCell>
        <mxCell id="xGo9mAzhHRWblN-cc9xw-39" value="" style="endArrow=none;html=1;rounded=0;entryX=1;entryY=0.5;entryDx=0;entryDy=0;exitX=0;exitY=0.5;exitDx=0;exitDy=0;edgeStyle=orthogonalEdgeStyle;strokeColor=#CC0066;strokeWidth=4;" edge="1" parent="1" source="54yuC4Lk0FtonxKzlv9x-139" target="54yuC4Lk0FtonxKzlv9x-141">
          <mxGeometry width="50" height="50" relative="1" as="geometry">
            <mxPoint x="470" y="470" as="sourcePoint" />
            <mxPoint x="520" y="420" as="targetPoint" />
          </mxGeometry>
        </mxCell>
        <mxCell id="xGo9mAzhHRWblN-cc9xw-40" value="" style="endArrow=none;html=1;rounded=0;entryX=1;entryY=0.5;entryDx=0;entryDy=0;exitX=0;exitY=0.5;exitDx=0;exitDy=0;edgeStyle=orthogonalEdgeStyle;strokeColor=#CC0066;strokeWidth=4;" edge="1" parent="1" source="54yuC4Lk0FtonxKzlv9x-139" target="54yuC4Lk0FtonxKzlv9x-97">
          <mxGeometry width="50" height="50" relative="1" as="geometry">
            <mxPoint x="470" y="470" as="sourcePoint" />
            <mxPoint x="520" y="420" as="targetPoint" />
          </mxGeometry>
        </mxCell>
        <mxCell id="xGo9mAzhHRWblN-cc9xw-41" value="" style="endArrow=none;html=1;rounded=0;entryX=1;entryY=0.5;entryDx=0;entryDy=0;edgeStyle=orthogonalEdgeStyle;strokeColor=#CC0066;strokeWidth=4;" edge="1" parent="1" source="54yuC4Lk0FtonxKzlv9x-139" target="xGo9mAzhHRWblN-cc9xw-38">
          <mxGeometry width="50" height="50" relative="1" as="geometry">
            <mxPoint x="470" y="470" as="sourcePoint" />
            <mxPoint x="520" y="420" as="targetPoint" />
          </mxGeometry>
        </mxCell>
        <mxCell id="xGo9mAzhHRWblN-cc9xw-46" value="" style="endArrow=none;html=1;rounded=0;entryX=0.5;entryY=1;entryDx=0;entryDy=0;strokeColor=#00FF00;strokeWidth=4;" edge="1" parent="1" source="54yuC4Lk0FtonxKzlv9x-101" target="xGo9mAzhHRWblN-cc9xw-37">
          <mxGeometry width="50" height="50" relative="1" as="geometry">
            <mxPoint x="470" y="470" as="sourcePoint" />
            <mxPoint x="520" y="420" as="targetPoint" />
          </mxGeometry>
        </mxCell>
        <mxCell id="xGo9mAzhHRWblN-cc9xw-47" value="" style="endArrow=none;html=1;rounded=0;entryX=0.5;entryY=1;entryDx=0;entryDy=0;strokeColor=#00FF00;strokeWidth=4;" edge="1" parent="1" source="xGo9mAzhHRWblN-cc9xw-37" target="54yuC4Lk0FtonxKzlv9x-139">
          <mxGeometry width="50" height="50" relative="1" as="geometry">
            <mxPoint x="470" y="470" as="sourcePoint" />
            <mxPoint x="520" y="420" as="targetPoint" />
          </mxGeometry>
        </mxCell>
        <mxCell id="xGo9mAzhHRWblN-cc9xw-48" value="" style="endArrow=none;html=1;rounded=0;entryX=1;entryY=0.5;entryDx=0;entryDy=0;exitX=0.5;exitY=1;exitDx=0;exitDy=0;edgeStyle=orthogonalEdgeStyle;strokeWidth=4;strokeColor=#00FF00;" edge="1" parent="1" source="54yuC4Lk0FtonxKzlv9x-139" target="54yuC4Lk0FtonxKzlv9x-161">
          <mxGeometry width="50" height="50" relative="1" as="geometry">
            <mxPoint x="480" y="460" as="sourcePoint" />
            <mxPoint x="530" y="410" as="targetPoint" />
          </mxGeometry>
        </mxCell>
        <mxCell id="xGo9mAzhHRWblN-cc9xw-50" value="Tee" style="rounded=1;whiteSpace=wrap;html=1;fillColor=#f5f5f5;strokeColor=#666666;fontColor=#333333;" vertex="1" parent="1">
          <mxGeometry x="908" y="293" width="82" height="55" as="geometry" />
        </mxCell>
        <mxCell id="xGo9mAzhHRWblN-cc9xw-51" value="" style="endArrow=none;html=1;rounded=0;entryX=1;entryY=0.25;entryDx=0;entryDy=0;exitX=0.5;exitY=0;exitDx=0;exitDy=0;edgeStyle=orthogonalEdgeStyle;strokeColor=#999999;strokeWidth=4;" edge="1" parent="1" source="xGo9mAzhHRWblN-cc9xw-50" target="xGo9mAzhHRWblN-cc9xw-14">
          <mxGeometry width="50" height="50" relative="1" as="geometry">
            <mxPoint x="480" y="460" as="sourcePoint" />
            <mxPoint x="530" y="410" as="targetPoint" />
          </mxGeometry>
        </mxCell>
        <mxCell id="xGo9mAzhHRWblN-cc9xw-52" value="" style="endArrow=none;html=1;rounded=0;entryX=1;entryY=0.25;entryDx=0;entryDy=0;exitX=0;exitY=0.5;exitDx=0;exitDy=0;edgeStyle=orthogonalEdgeStyle;strokeColor=#999999;strokeWidth=4;" edge="1" parent="1" source="xGo9mAzhHRWblN-cc9xw-50" target="54yuC4Lk0FtonxKzlv9x-95">
          <mxGeometry width="50" height="50" relative="1" as="geometry">
            <mxPoint x="480" y="460" as="sourcePoint" />
            <mxPoint x="530" y="410" as="targetPoint" />
          </mxGeometry>
        </mxCell>
        <mxCell id="xGo9mAzhHRWblN-cc9xw-54" value="Manual&lt;div&gt;&amp;nbsp;3-Way&lt;br&gt;Selector&lt;br&gt;Valve&lt;/div&gt;" style="rounded=1;whiteSpace=wrap;html=1;fillColor=#f5f5f5;strokeColor=#666666;fontColor=#333333;" vertex="1" parent="1">
          <mxGeometry x="889" y="446.5" width="120" height="70" as="geometry" />
        </mxCell>
        <mxCell id="xGo9mAzhHRWblN-cc9xw-56" value="" style="endArrow=none;html=1;rounded=0;entryX=0.5;entryY=1;entryDx=0;entryDy=0;strokeColor=#999999;strokeWidth=4;" edge="1" parent="1" source="xGo9mAzhHRWblN-cc9xw-54" target="xGo9mAzhHRWblN-cc9xw-50">
          <mxGeometry width="50" height="50" relative="1" as="geometry">
            <mxPoint x="518" y="460" as="sourcePoint" />
            <mxPoint x="568" y="410" as="targetPoint" />
          </mxGeometry>
        </mxCell>
        <mxCell id="xGo9mAzhHRWblN-cc9xw-57" value="" style="endArrow=none;html=1;rounded=0;entryX=0.5;entryY=1;entryDx=0;entryDy=0;strokeColor=#999999;strokeWidth=4;" edge="1" parent="1" source="54yuC4Lk0FtonxKzlv9x-99" target="xGo9mAzhHRWblN-cc9xw-54">
          <mxGeometry width="50" height="50" relative="1" as="geometry">
            <mxPoint x="518" y="522.5" as="sourcePoint" />
            <mxPoint x="568" y="472.5" as="targetPoint" />
          </mxGeometry>
        </mxCell>
        <mxCell id="xGo9mAzhHRWblN-cc9xw-61" value="" style="endArrow=none;html=1;rounded=0;entryX=0.5;entryY=1;entryDx=0;entryDy=0;strokeColor=#999999;strokeWidth=4;" edge="1" parent="1" source="54yuC4Lk0FtonxKzlv9x-104" target="54yuC4Lk0FtonxKzlv9x-99">
          <mxGeometry width="50" height="50" relative="1" as="geometry">
            <mxPoint x="518" y="460" as="sourcePoint" />
            <mxPoint x="568" y="410" as="targetPoint" />
          </mxGeometry>
        </mxCell>
        <mxCell id="xGo9mAzhHRWblN-cc9xw-64" value="One-way valve" style="rounded=1;whiteSpace=wrap;html=1;fontSize=9;fillColor=#f5f5f5;fontColor=#333333;strokeColor=#666666;" vertex="1" parent="1">
          <mxGeometry x="792" y="613" width="80" height="33" as="geometry" />
        </mxCell>
        <mxCell id="xGo9mAzhHRWblN-cc9xw-65" value="" style="endArrow=none;html=1;rounded=0;exitX=1;exitY=0.5;exitDx=0;exitDy=0;edgeStyle=orthogonalEdgeStyle;strokeWidth=4;strokeColor=#999999;" edge="1" parent="1" source="xGo9mAzhHRWblN-cc9xw-54" target="54yuC4Lk0FtonxKzlv9x-148">
          <mxGeometry width="50" height="50" relative="1" as="geometry">
            <mxPoint x="480" y="460" as="sourcePoint" />
            <mxPoint x="530" y="410" as="targetPoint" />
          </mxGeometry>
        </mxCell>
        <mxCell id="xGo9mAzhHRWblN-cc9xw-66" value="" style="endArrow=none;html=1;rounded=0;entryX=0;entryY=0.5;entryDx=0;entryDy=0;exitX=0.5;exitY=1;exitDx=0;exitDy=0;edgeStyle=orthogonalEdgeStyle;strokeWidth=4;strokeColor=#999999;" edge="1" parent="1" source="xGo9mAzhHRWblN-cc9xw-50" target="54yuC4Lk0FtonxKzlv9x-100">
          <mxGeometry width="50" height="50" relative="1" as="geometry">
            <mxPoint x="480" y="460" as="sourcePoint" />
            <mxPoint x="530" y="410" as="targetPoint" />
          </mxGeometry>
        </mxCell>
        <mxCell id="xGo9mAzhHRWblN-cc9xw-67" value="" style="endArrow=none;html=1;rounded=0;entryX=0;entryY=0.5;entryDx=0;entryDy=0;exitX=0.5;exitY=1;exitDx=0;exitDy=0;edgeStyle=orthogonalEdgeStyle;strokeWidth=4;strokeColor=#999999;" edge="1" parent="1" source="xGo9mAzhHRWblN-cc9xw-50" target="54yuC4Lk0FtonxKzlv9x-149">
          <mxGeometry width="50" height="50" relative="1" as="geometry">
            <mxPoint x="480" y="460" as="sourcePoint" />
            <mxPoint x="530" y="410" as="targetPoint" />
          </mxGeometry>
        </mxCell>
        <mxCell id="xGo9mAzhHRWblN-cc9xw-68" value="" style="endArrow=none;html=1;rounded=0;entryX=0;entryY=0.5;entryDx=0;entryDy=0;exitX=1;exitY=0.5;exitDx=0;exitDy=0;strokeColor=#999999;strokeWidth=4;" edge="1" parent="1" source="xGo9mAzhHRWblN-cc9xw-37" target="xGo9mAzhHRWblN-cc9xw-64">
          <mxGeometry width="50" height="50" relative="1" as="geometry">
            <mxPoint x="480" y="460" as="sourcePoint" />
            <mxPoint x="810" y="570" as="targetPoint" />
          </mxGeometry>
        </mxCell>
        <mxCell id="xGo9mAzhHRWblN-cc9xw-69" value="" style="endArrow=none;html=1;rounded=0;entryX=0;entryY=0.5;entryDx=0;entryDy=0;exitX=1;exitY=0.5;exitDx=0;exitDy=0;edgeStyle=orthogonalEdgeStyle;strokeColor=#999999;strokeWidth=4;" edge="1" parent="1" source="xGo9mAzhHRWblN-cc9xw-64" target="54yuC4Lk0FtonxKzlv9x-99">
          <mxGeometry width="50" height="50" relative="1" as="geometry">
            <mxPoint x="480" y="460" as="sourcePoint" />
            <mxPoint x="530" y="410" as="targetPoint" />
          </mxGeometry>
        </mxCell>
        <mxCell id="xGo9mAzhHRWblN-cc9xw-70" value="Legend:" style="rounded=0;whiteSpace=wrap;html=1;verticalAlign=top;movable=1;resizable=1;rotatable=1;deletable=1;editable=1;connectable=1;" vertex="1" parent="1">
          <mxGeometry x="350" y="601" width="260" height="210" as="geometry" />
        </mxCell>
        <mxCell id="xGo9mAzhHRWblN-cc9xw-71" value="" style="endArrow=none;html=1;rounded=1;exitX=0.5;exitY=0;exitDx=0;exitDy=0;strokeColor=#FF8000;strokeWidth=4;" edge="1" parent="1">
          <mxGeometry width="50" height="50" relative="1" as="geometry">
            <mxPoint x="370" y="651" as="sourcePoint" />
            <mxPoint x="440" y="651" as="targetPoint" />
          </mxGeometry>
        </mxCell>
        <mxCell id="xGo9mAzhHRWblN-cc9xw-72" value="Sea Water -&amp;nbsp; Low Pressure" style="edgeLabel;html=1;align=left;verticalAlign=middle;resizable=0;points=[];" vertex="1" connectable="0" parent="xGo9mAzhHRWblN-cc9xw-71">
          <mxGeometry x="0.4571" y="-1" relative="1" as="geometry">
            <mxPoint x="29" y="-1" as="offset" />
          </mxGeometry>
        </mxCell>
        <mxCell id="xGo9mAzhHRWblN-cc9xw-73" value="" style="endArrow=none;html=1;rounded=0;strokeColor=#0000FF;strokeWidth=4;entryX=0.5;entryY=0;entryDx=0;entryDy=0;" edge="1" parent="1">
          <mxGeometry width="50" height="50" relative="1" as="geometry">
            <mxPoint x="440" y="711" as="sourcePoint" />
            <mxPoint x="370" y="711" as="targetPoint" />
          </mxGeometry>
        </mxCell>
        <mxCell id="xGo9mAzhHRWblN-cc9xw-74" value="Freshwater - Low Pressure" style="edgeLabel;html=1;align=left;verticalAlign=middle;resizable=0;points=[];" vertex="1" connectable="0" parent="xGo9mAzhHRWblN-cc9xw-73">
          <mxGeometry x="-0.2857" y="1" relative="1" as="geometry">
            <mxPoint x="35" y="-2" as="offset" />
          </mxGeometry>
        </mxCell>
        <mxCell id="xGo9mAzhHRWblN-cc9xw-75" value="" style="endArrow=none;html=1;rounded=0;strokeColor=#CC0066;strokeWidth=4;" edge="1" parent="1">
          <mxGeometry width="50" height="50" relative="1" as="geometry">
            <mxPoint x="370" y="681" as="sourcePoint" />
            <mxPoint x="440" y="681" as="targetPoint" />
          </mxGeometry>
        </mxCell>
        <mxCell id="xGo9mAzhHRWblN-cc9xw-76" value="Sea Water - High Pressure" style="edgeLabel;html=1;align=left;verticalAlign=middle;resizable=0;points=[];" vertex="1" connectable="0" parent="xGo9mAzhHRWblN-cc9xw-75">
          <mxGeometry x="0.4662" y="1" relative="1" as="geometry">
            <mxPoint x="28" y="1" as="offset" />
          </mxGeometry>
        </mxCell>
        <mxCell id="xGo9mAzhHRWblN-cc9xw-77" value="" style="endArrow=none;html=1;rounded=1;strokeColor=#999999;strokeWidth=4;" edge="1" parent="1">
          <mxGeometry width="50" height="50" relative="1" as="geometry">
            <mxPoint x="440" y="741" as="sourcePoint" />
            <mxPoint x="370" y="741" as="targetPoint" />
          </mxGeometry>
        </mxCell>
        <mxCell id="xGo9mAzhHRWblN-cc9xw-78" value="Product Water" style="edgeLabel;html=1;align=left;verticalAlign=middle;resizable=0;points=[];" vertex="1" connectable="0" parent="xGo9mAzhHRWblN-cc9xw-77">
          <mxGeometry x="-0.6617" y="-2" relative="1" as="geometry">
            <mxPoint x="22" y="2" as="offset" />
          </mxGeometry>
        </mxCell>
        <mxCell id="xGo9mAzhHRWblN-cc9xw-79" value="" style="endArrow=none;html=1;rounded=0;strokeColor=#00FF00;strokeWidth=4;" edge="1" parent="1">
          <mxGeometry width="50" height="50" relative="1" as="geometry">
            <mxPoint x="370" y="770.47" as="sourcePoint" />
            <mxPoint x="440" y="770.47" as="targetPoint" />
          </mxGeometry>
        </mxCell>
        <mxCell id="xGo9mAzhHRWblN-cc9xw-80" value="Waste Brine" style="edgeLabel;html=1;align=left;verticalAlign=middle;resizable=0;points=[];" vertex="1" connectable="0" parent="xGo9mAzhHRWblN-cc9xw-79">
          <mxGeometry x="0.6579" y="-1" relative="1" as="geometry">
            <mxPoint x="23" y="-1" as="offset" />
          </mxGeometry>
        </mxCell>
        <mxCell id="xGo9mAzhHRWblN-cc9xw-81" value="" style="endArrow=none;html=1;rounded=1;exitX=0.5;exitY=0;exitDx=0;exitDy=0;strokeColor=#00FFFF;strokeWidth=4;" edge="1" parent="1">
          <mxGeometry width="50" height="50" relative="1" as="geometry">
            <mxPoint x="370" y="799" as="sourcePoint" />
            <mxPoint x="440" y="799" as="targetPoint" />
          </mxGeometry>
        </mxCell>
        <mxCell id="xGo9mAzhHRWblN-cc9xw-82" value="Pickling Liquid -&amp;nbsp; Low Pressure" style="edgeLabel;html=1;align=left;verticalAlign=middle;resizable=0;points=[];" vertex="1" connectable="0" parent="xGo9mAzhHRWblN-cc9xw-81">
          <mxGeometry x="0.4571" y="-1" relative="1" as="geometry">
            <mxPoint x="29" y="-1" as="offset" />
          </mxGeometry>
        </mxCell>
        <mxCell id="xGo9mAzhHRWblN-cc9xw-83" value="" style="endArrow=none;html=1;entryX=1;entryY=1;entryDx=0;entryDy=0;movable=0;resizable=0;rotatable=0;deletable=0;editable=0;connectable=0;" edge="1" parent="1">
          <mxGeometry width="50" height="50" relative="1" as="geometry">
            <mxPoint x="9" y="813" as="sourcePoint" />
            <mxPoint x="1155" y="813" as="targetPoint" />
          </mxGeometry>
        </mxCell>
        <mxCell id="xGo9mAzhHRWblN-cc9xw-84" value="" style="endArrow=none;html=1;movable=0;resizable=0;rotatable=0;deletable=0;editable=0;connectable=0;" edge="1" parent="1">
          <mxGeometry width="50" height="50" relative="1" as="geometry">
            <mxPoint x="9" y="813" as="sourcePoint" />
            <mxPoint x="9" y="9" as="targetPoint" />
          </mxGeometry>
        </mxCell>
        <mxCell id="xGo9mAzhHRWblN-cc9xw-85" value="" style="endArrow=none;html=1;movable=0;resizable=0;rotatable=0;deletable=0;editable=0;connectable=0;" edge="1" parent="1">
          <mxGeometry width="50" height="50" relative="1" as="geometry">
            <mxPoint x="1155" y="9" as="sourcePoint" />
            <mxPoint x="9" y="9" as="targetPoint" />
          </mxGeometry>
        </mxCell>
        <mxCell id="xGo9mAzhHRWblN-cc9xw-86" value="" style="endArrow=none;html=1;entryX=1;entryY=1;entryDx=0;entryDy=0;movable=0;resizable=0;rotatable=0;deletable=0;editable=0;connectable=0;" edge="1" parent="1">
          <mxGeometry width="50" height="50" relative="1" as="geometry">
            <mxPoint x="1155" y="9" as="sourcePoint" />
            <mxPoint x="1155" y="813" as="targetPoint" />
          </mxGeometry>
        </mxCell>
        <mxCell id="xGo9mAzhHRWblN-cc9xw-92" value="2.3kW motor" style="rounded=1;whiteSpace=wrap;html=1;fillColor=#d5e8d4;strokeColor=#82b366;" vertex="1" parent="1">
          <mxGeometry x="540" y="228" width="90" height="40" as="geometry" />
        </mxCell>
        <mxCell id="xGo9mAzhHRWblN-cc9xw-97" value="Author: Steen Hadsbjerg" style="rounded=0;whiteSpace=wrap;html=1;fillColor=none;align=left;movable=0;resizable=0;rotatable=0;deletable=0;editable=0;connectable=0;locked=1;" vertex="1" parent="1">
          <mxGeometry x="937" y="775" width="216" height="18" as="geometry" />
        </mxCell>
        <mxCell id="xGo9mAzhHRWblN-cc9xw-98" value="Aqua-O-Matic" style="rounded=0;whiteSpace=wrap;html=1;fillColor=none;align=left;movable=0;resizable=0;rotatable=0;deletable=0;editable=0;connectable=0;locked=1;" vertex="1" parent="1">
          <mxGeometry x="937" y="757" width="216" height="18" as="geometry" />
        </mxCell>
        <mxCell id="xGo9mAzhHRWblN-cc9xw-99" value="Revision B" style="rounded=0;whiteSpace=wrap;html=1;fillColor=none;align=left;movable=0;resizable=0;rotatable=0;deletable=0;editable=0;connectable=0;locked=1;" vertex="1" parent="1">
          <mxGeometry x="1045" y="793" width="108" height="18" as="geometry" />
        </mxCell>
        <mxCell id="xGo9mAzhHRWblN-cc9xw-100" value="22 Oct 2025" style="rounded=0;whiteSpace=wrap;html=1;fillColor=none;align=left;movable=0;resizable=0;rotatable=0;deletable=0;editable=0;connectable=0;locked=1;" vertex="1" parent="1">
          <mxGeometry x="937" y="793" width="108" height="18" as="geometry" />
        </mxCell>
      </root>
    </mxGraphModel>
  </diagram>
  <diagram id="ZoRXD8eF82gNs9jJluqA" name="Electrical - Control Board">
    <mxGraphModel dx="2581" dy="827" grid="1" gridSize="10" guides="1" tooltips="1" connect="1" arrows="1" fold="1" page="1" pageScale="1" pageWidth="1169" pageHeight="827" math="0" shadow="0">
      <root>
        <mxCell id="0" />
        <mxCell id="1" parent="0" />
        <mxCell id="UBXUebqdHI277NAPkUeO-1" value="&lt;span style=&quot;font-size: 40px;&quot;&gt;Aqua-O-M&lt;/span&gt;&lt;span style=&quot;color: rgba(0, 0, 0, 0); font-family: monospace; font-size: 0px; text-align: start; text-wrap-mode: nowrap;&quot;&gt;%3CmxGraphModel%3E%3Croot%3E%3CmxCell%20id%3D%220%22%2F%3E%3CmxCell%20id%3D%221%22%20parent%3D%220%22%2F%3E%3CmxCell%20id%3D%222%22%20value%3D%22%22%20style%3D%22endArrow%3Dnone%3Bhtml%3D1%3BentryX%3D1%3BentryY%3D1%3BentryDx%3D0%3BentryDy%3D0%3Bmovable%3D0%3Bresizable%3D0%3Brotatable%3D0%3Bdeletable%3D0%3Beditable%3D0%3Bconnectable%3D0%3B%22%20edge%3D%221%22%20parent%3D%221%22%3E%3CmxGeometry%20width%3D%2250%22%20height%3D%2250%22%20relative%3D%221%22%20as%3D%22geometry%22%3E%3CmxPoint%20x%3D%229%22%20y%3D%22813%22%20as%3D%22sourcePoint%22%2F%3E%3CmxPoint%20x%3D%221155%22%20y%3D%22813%22%20as%3D%22targetPoint%22%2F%3E%3C%2FmxGeometry%3E%3C%2FmxCell%3E%3C%2Froot%3E%3C%2FmxGraphModel%3E&lt;/span&gt;&lt;span style=&quot;font-size: 40px;&quot;&gt;atic - Control Board&lt;/span&gt;" style="text;html=1;strokeColor=none;fillColor=none;align=center;verticalAlign=middle;whiteSpace=wrap;rounded=0;fontSize=40;perimeterSpacing=0;fontStyle=4" vertex="1" parent="1">
          <mxGeometry x="-1080" y="40" width="865" height="30" as="geometry" />
        </mxCell>
        <mxCell id="UBXUebqdHI277NAPkUeO-2" value="" style="endArrow=none;html=1;entryX=1;entryY=1;entryDx=0;entryDy=0;movable=1;resizable=1;rotatable=1;deletable=1;editable=1;connectable=1;locked=0;" edge="1" parent="1">
          <mxGeometry width="50" height="50" relative="1" as="geometry">
            <mxPoint x="-1159" y="814" as="sourcePoint" />
            <mxPoint x="-13" y="814" as="targetPoint" />
          </mxGeometry>
        </mxCell>
        <mxCell id="UBXUebqdHI277NAPkUeO-3" value="" style="endArrow=none;html=1;movable=1;resizable=1;rotatable=1;deletable=1;editable=1;connectable=1;locked=0;" edge="1" parent="1">
          <mxGeometry width="50" height="50" relative="1" as="geometry">
            <mxPoint x="-1159" y="814" as="sourcePoint" />
            <mxPoint x="-1159" y="10" as="targetPoint" />
          </mxGeometry>
        </mxCell>
        <mxCell id="UBXUebqdHI277NAPkUeO-4" value="" style="endArrow=none;html=1;movable=1;resizable=1;rotatable=1;deletable=1;editable=1;connectable=1;locked=0;" edge="1" parent="1">
          <mxGeometry width="50" height="50" relative="1" as="geometry">
            <mxPoint x="-16" y="10" as="sourcePoint" />
            <mxPoint x="-1162" y="10" as="targetPoint" />
          </mxGeometry>
        </mxCell>
        <mxCell id="UBXUebqdHI277NAPkUeO-5" value="" style="endArrow=none;html=1;entryX=1;entryY=1;entryDx=0;entryDy=0;movable=1;resizable=1;rotatable=1;deletable=1;editable=1;connectable=1;locked=0;" edge="1" parent="1">
          <mxGeometry width="50" height="50" relative="1" as="geometry">
            <mxPoint x="-13" y="10" as="sourcePoint" />
            <mxPoint x="-13" y="814" as="targetPoint" />
          </mxGeometry>
        </mxCell>
        <mxCell id="AfocWXD33_CHXYOcDpQM-1" value="ESP32-S3&lt;br&gt;Controller&lt;br&gt;Board" style="rounded=1;whiteSpace=wrap;html=1;fillColor=#e1d5e7;strokeColor=#9673a6;" vertex="1" parent="1">
          <mxGeometry x="-710" y="268" width="340" height="170" as="geometry" />
        </mxCell>
        <mxCell id="AfocWXD33_CHXYOcDpQM-2" value="Freshwater&lt;br style=&quot;font-size: 12px;&quot;&gt;Flush&lt;br style=&quot;font-size: 12px;&quot;&gt;Solenoid&lt;br&gt;(20W)" style="rounded=1;whiteSpace=wrap;html=1;fillColor=#d5e8d4;strokeColor=#82b366;fontSize=12;" vertex="1" parent="1">
          <mxGeometry x="-1000" y="655" width="90" height="75" as="geometry" />
        </mxCell>
        <mxCell id="AfocWXD33_CHXYOcDpQM-4" value="Diverter/Tank Valve" style="rounded=1;whiteSpace=wrap;html=1;fillColor=#d5e8d4;strokeColor=#82b366;fontSize=10;" vertex="1" parent="1">
          <mxGeometry x="-535" y="580" width="120" height="75" as="geometry" />
        </mxCell>
        <mxCell id="AfocWXD33_CHXYOcDpQM-5" value="TDS Sensor&lt;br&gt;&lt;br&gt;0-2.3v output" style="rounded=1;whiteSpace=wrap;html=1;fillColor=#d5e8d4;strokeColor=#82b366;fontSize=9;" vertex="1" parent="1">
          <mxGeometry x="-685" y="110" width="120" height="60" as="geometry" />
        </mxCell>
        <mxCell id="AfocWXD33_CHXYOcDpQM-7" value="ADS1115 ADC" style="rounded=1;whiteSpace=wrap;html=1;fillColor=#f8cecc;strokeColor=#b85450;points=[[0,0,0,0,0],[0,0.23,0,0,0],[0,0.5,0,0,0],[0,0.77,0,0,0],[0,1,0,0,0],[0.2,0,0,0,0],[0.25,1,0,0,0],[0.4,0,0,0,0],[0.5,1,0,0,0],[0.6,0,0,0,0],[0.75,1,0,0,0],[0.8,0,0,0,0],[1,0,0,0,0],[1,0.27,0,0,0],[1,0.5,0,0,0],[1,0.77,0,0,0],[1,1,0,0,0]];" vertex="1" parent="1">
          <mxGeometry x="-685" y="238" width="100" height="30" as="geometry" />
        </mxCell>
        <mxCell id="AfocWXD33_CHXYOcDpQM-8" value="" style="endArrow=none;html=1;rounded=0;entryX=0.5;entryY=1;entryDx=0;entryDy=0;exitX=0.6;exitY=0;exitDx=0;exitDy=0;exitPerimeter=0;edgeStyle=orthogonalEdgeStyle;" edge="1" parent="1" source="AfocWXD33_CHXYOcDpQM-7" target="AfocWXD33_CHXYOcDpQM-5">
          <mxGeometry width="50" height="50" relative="1" as="geometry">
            <mxPoint x="-565" y="199" as="sourcePoint" />
            <mxPoint x="-435" y="129" as="targetPoint" />
          </mxGeometry>
        </mxCell>
        <mxCell id="AfocWXD33_CHXYOcDpQM-9" value="" style="endArrow=none;html=1;rounded=0;entryX=0.5;entryY=1;entryDx=0;entryDy=0;exitX=0.8;exitY=0;exitDx=0;exitDy=0;exitPerimeter=0;edgeStyle=orthogonalEdgeStyle;" edge="1" parent="1" source="AfocWXD33_CHXYOcDpQM-7" target="AfocWXD33_CHXYOcDpQM-25">
          <mxGeometry width="50" height="50" relative="1" as="geometry">
            <mxPoint x="-505" y="209" as="sourcePoint" />
            <mxPoint x="-525" y="176.5" as="targetPoint" />
            <Array as="points">
              <mxPoint x="-605" y="200" />
              <mxPoint x="-475" y="200" />
            </Array>
          </mxGeometry>
        </mxCell>
        <mxCell id="AfocWXD33_CHXYOcDpQM-10" value="" style="endArrow=none;html=1;rounded=0;entryX=0.5;entryY=1;entryDx=0;entryDy=0;exitX=0.5;exitY=0;exitDx=0;exitDy=0;edgeStyle=orthogonalEdgeStyle;" edge="1" parent="1" source="AfocWXD33_CHXYOcDpQM-11" target="AfocWXD33_CHXYOcDpQM-26">
          <mxGeometry width="50" height="50" relative="1" as="geometry">
            <mxPoint x="-405" y="189" as="sourcePoint" />
            <mxPoint x="-355" y="129" as="targetPoint" />
            <Array as="points">
              <mxPoint x="-455" y="220" />
              <mxPoint x="-315" y="220" />
            </Array>
          </mxGeometry>
        </mxCell>
        <mxCell id="AfocWXD33_CHXYOcDpQM-11" value="Pulse Counter" style="rounded=1;whiteSpace=wrap;html=1;fillColor=#f8cecc;strokeColor=#b85450;" vertex="1" parent="1">
          <mxGeometry x="-515" y="238" width="120" height="30" as="geometry" />
        </mxCell>
        <mxCell id="AfocWXD33_CHXYOcDpQM-12" value="" style="endArrow=none;html=1;rounded=0;entryX=0.75;entryY=1;entryDx=0;entryDy=0;exitX=0.4;exitY=0;exitDx=0;exitDy=0;exitPerimeter=0;edgeStyle=orthogonalEdgeStyle;" edge="1" parent="1" source="AfocWXD33_CHXYOcDpQM-7" target="AfocWXD33_CHXYOcDpQM-20">
          <mxGeometry width="50" height="50" relative="1" as="geometry">
            <mxPoint x="-475" y="219.0000000000001" as="sourcePoint" />
            <mxPoint x="-540.5" y="109" as="targetPoint" />
            <Array as="points">
              <mxPoint x="-645" y="200" />
              <mxPoint x="-755" y="200" />
            </Array>
          </mxGeometry>
        </mxCell>
        <mxCell id="AfocWXD33_CHXYOcDpQM-38" style="edgeStyle=orthogonalEdgeStyle;rounded=0;orthogonalLoop=1;jettySize=auto;html=1;exitX=0.5;exitY=1;exitDx=0;exitDy=0;exitPerimeter=0;entryX=0.5;entryY=0;entryDx=0;entryDy=0;endArrow=none;endFill=0;" edge="1" parent="1" source="AfocWXD33_CHXYOcDpQM-13" target="AfocWXD33_CHXYOcDpQM-22">
          <mxGeometry relative="1" as="geometry" />
        </mxCell>
        <mxCell id="AfocWXD33_CHXYOcDpQM-39" style="edgeStyle=orthogonalEdgeStyle;rounded=0;orthogonalLoop=1;jettySize=auto;html=1;exitX=0.5;exitY=1;exitDx=0;exitDy=0;exitPerimeter=0;entryX=0.5;entryY=0;entryDx=0;entryDy=0;endArrow=none;endFill=0;" edge="1" parent="1" source="AfocWXD33_CHXYOcDpQM-13" target="AfocWXD33_CHXYOcDpQM-2">
          <mxGeometry relative="1" as="geometry" />
        </mxCell>
        <mxCell id="AfocWXD33_CHXYOcDpQM-40" style="edgeStyle=orthogonalEdgeStyle;rounded=0;orthogonalLoop=1;jettySize=auto;html=1;exitX=0.5;exitY=1;exitDx=0;exitDy=0;exitPerimeter=0;entryX=0.5;entryY=0;entryDx=0;entryDy=0;endArrow=none;endFill=0;" edge="1" parent="1" source="AfocWXD33_CHXYOcDpQM-13" target="AfocWXD33_CHXYOcDpQM-37">
          <mxGeometry relative="1" as="geometry" />
        </mxCell>
        <mxCell id="AfocWXD33_CHXYOcDpQM-41" style="edgeStyle=orthogonalEdgeStyle;rounded=0;orthogonalLoop=1;jettySize=auto;html=1;exitX=0.5;exitY=1;exitDx=0;exitDy=0;exitPerimeter=0;endArrow=none;endFill=0;" edge="1" parent="1" source="AfocWXD33_CHXYOcDpQM-13" target="AfocWXD33_CHXYOcDpQM-6">
          <mxGeometry relative="1" as="geometry" />
        </mxCell>
        <mxCell id="AfocWXD33_CHXYOcDpQM-13" value="Relay Board / GPIO control" style="rounded=1;whiteSpace=wrap;html=1;fillColor=#f8cecc;strokeColor=#b85450;points=[[0,0,0,0,0],[0,0.23,0,0,0],[0,0.5,0,0,0],[0,0.77,0,0,0],[0,1,0,0,0],[0.2,0,0,0,0],[0.25,1,0,0,0],[0.4,0,0,0,0],[0.5,1,0,0,0],[0.6,0,0,0,0],[0.75,1,0,0,0],[0.8,0,0,0,0],[1,0,0,0,0],[1,0.27,0,0,0],[1,0.5,0,0,0],[1,0.77,0,0,0],[1,1,0,0,0]];fontSize=10;" vertex="1" parent="1">
          <mxGeometry x="-685" y="438" width="80" height="30" as="geometry" />
        </mxCell>
        <mxCell id="AfocWXD33_CHXYOcDpQM-43" style="edgeStyle=orthogonalEdgeStyle;rounded=0;orthogonalLoop=1;jettySize=auto;html=1;exitX=0.5;exitY=1;exitDx=0;exitDy=0;exitPerimeter=0;entryX=0.5;entryY=0;entryDx=0;entryDy=0;endArrow=none;endFill=0;" edge="1" parent="1" source="AfocWXD33_CHXYOcDpQM-17" target="AfocWXD33_CHXYOcDpQM-4">
          <mxGeometry relative="1" as="geometry">
            <Array as="points">
              <mxPoint x="-510" y="550" />
              <mxPoint x="-475" y="550" />
            </Array>
          </mxGeometry>
        </mxCell>
        <mxCell id="AfocWXD33_CHXYOcDpQM-44" style="edgeStyle=orthogonalEdgeStyle;rounded=0;orthogonalLoop=1;jettySize=auto;html=1;exitX=0.5;exitY=1;exitDx=0;exitDy=0;exitPerimeter=0;entryX=0.5;entryY=0;entryDx=0;entryDy=0;endArrow=none;endFill=0;" edge="1" parent="1" source="AfocWXD33_CHXYOcDpQM-17" target="AfocWXD33_CHXYOcDpQM-31">
          <mxGeometry relative="1" as="geometry">
            <Array as="points">
              <mxPoint x="-510" y="540" />
              <mxPoint x="-325" y="540" />
            </Array>
          </mxGeometry>
        </mxCell>
        <mxCell id="AfocWXD33_CHXYOcDpQM-17" value="PWM Servos&lt;br&gt;5V @ 2A" style="rounded=1;whiteSpace=wrap;html=1;fillColor=#f8cecc;strokeColor=#b85450;points=[[0,0,0,0,0],[0,0.23,0,0,0],[0,0.5,0,0,0],[0,0.77,0,0,0],[0,1,0,0,0],[0.2,0,0,0,0],[0.25,1,0,0,0],[0.4,0,0,0,0],[0.5,1,0,0,0],[0.6,0,0,0,0],[0.75,1,0,0,0],[0.8,0,0,0,0],[1,0,0,0,0],[1,0.27,0,0,0],[1,0.5,0,0,0],[1,0.77,0,0,0],[1,1,0,0,0]];fontSize=10;" vertex="1" parent="1">
          <mxGeometry x="-550" y="438" width="80" height="30" as="geometry" />
        </mxCell>
        <mxCell id="AfocWXD33_CHXYOcDpQM-19" value="12v Input&lt;br&gt;5v Output&lt;br&gt;Voltage Regulator" style="rounded=1;whiteSpace=wrap;html=1;fontSize=10;fillColor=#fff2cc;strokeColor=#d6b656;" vertex="1" parent="1">
          <mxGeometry x="-805" y="299" width="95" height="120" as="geometry" />
        </mxCell>
        <mxCell id="AfocWXD33_CHXYOcDpQM-20" value="Low Pressure Sensor&lt;br&gt;High Pressure Sensor&lt;br&gt;&lt;br&gt;4-20mA" style="rounded=1;whiteSpace=wrap;html=1;fillColor=#d5e8d4;strokeColor=#82b366;fontSize=9;" vertex="1" parent="1">
          <mxGeometry x="-845" y="110" width="120" height="60" as="geometry" />
        </mxCell>
        <mxCell id="AfocWXD33_CHXYOcDpQM-21" value="" style="endArrow=none;html=1;rounded=0;entryX=0.25;entryY=1;entryDx=0;entryDy=0;exitX=0.2;exitY=0;exitDx=0;exitDy=0;exitPerimeter=0;edgeStyle=orthogonalEdgeStyle;" edge="1" parent="1" source="AfocWXD33_CHXYOcDpQM-7" target="AfocWXD33_CHXYOcDpQM-20">
          <mxGeometry width="50" height="50" relative="1" as="geometry">
            <mxPoint x="-605" y="248" as="sourcePoint" />
            <mxPoint x="-625" y="119" as="targetPoint" />
            <Array as="points">
              <mxPoint x="-665" y="220" />
              <mxPoint x="-815" y="220" />
            </Array>
          </mxGeometry>
        </mxCell>
        <mxCell id="AfocWXD33_CHXYOcDpQM-22" value="DC Motor&lt;br style=&quot;font-size: 10px;&quot;&gt;Boost Pump&lt;br style=&quot;font-size: 10px;&quot;&gt;&lt;br style=&quot;font-size: 10px;&quot;&gt;DC/DC Relay" style="rounded=1;whiteSpace=wrap;html=1;fillColor=#d5e8d4;strokeColor=#82b366;fontSize=10;" vertex="1" parent="1">
          <mxGeometry x="-1100" y="655" width="90" height="75" as="geometry" />
        </mxCell>
        <mxCell id="AfocWXD33_CHXYOcDpQM-25" value="Raw Water Temperature&lt;br&gt;Sensor&lt;br&gt;&lt;br&gt;NTC Thermistor" style="rounded=1;whiteSpace=wrap;html=1;fillColor=#d5e8d4;strokeColor=#82b366;fontSize=9;" vertex="1" parent="1">
          <mxGeometry x="-535" y="110" width="120" height="60" as="geometry" />
        </mxCell>
        <mxCell id="AfocWXD33_CHXYOcDpQM-26" value="Flow Meter&lt;br&gt;&lt;br&gt;NPN sinking open collector" style="rounded=1;whiteSpace=wrap;html=1;fillColor=#d5e8d4;strokeColor=#82b366;fontSize=9;" vertex="1" parent="1">
          <mxGeometry x="-375" y="110" width="120" height="60" as="geometry" />
        </mxCell>
        <mxCell id="AfocWXD33_CHXYOcDpQM-33" style="edgeStyle=orthogonalEdgeStyle;rounded=0;orthogonalLoop=1;jettySize=auto;html=1;exitX=0.5;exitY=1;exitDx=0;exitDy=0;exitPerimeter=0;entryX=0.5;entryY=0;entryDx=0;entryDy=0;endArrow=none;endFill=0;" edge="1" parent="1" source="AfocWXD33_CHXYOcDpQM-28" target="AfocWXD33_CHXYOcDpQM-32">
          <mxGeometry relative="1" as="geometry">
            <Array as="points">
              <mxPoint x="-425" y="490" />
              <mxPoint x="-360" y="490" />
              <mxPoint x="-360" y="524" />
              <mxPoint x="-155" y="524" />
            </Array>
          </mxGeometry>
        </mxCell>
        <mxCell id="AfocWXD33_CHXYOcDpQM-28" value="MODBUS" style="rounded=1;whiteSpace=wrap;html=1;fillColor=#f8cecc;strokeColor=#b85450;points=[[0,0,0,0,0],[0,0.23,0,0,0],[0,0.5,0,0,0],[0,0.77,0,0,0],[0,1,0,0,0],[0.2,0,0,0,0],[0.25,1,0,0,0],[0.4,0,0,0,0],[0.5,1,0,0,0],[0.6,0,0,0,0],[0.75,1,0,0,0],[0.8,0,0,0,0],[1,0,0,0,0],[1,0.27,0,0,0],[1,0.5,0,0,0],[1,0.77,0,0,0],[1,1,0,0,0]];fontSize=10;" vertex="1" parent="1">
          <mxGeometry x="-455" y="438" width="60" height="30" as="geometry" />
        </mxCell>
        <mxCell id="AfocWXD33_CHXYOcDpQM-31" value="HP Needle Valve" style="rounded=1;whiteSpace=wrap;html=1;fillColor=#d5e8d4;strokeColor=#82b366;fontSize=10;" vertex="1" parent="1">
          <mxGeometry x="-385" y="580" width="120" height="75" as="geometry" />
        </mxCell>
        <mxCell id="AfocWXD33_CHXYOcDpQM-32" value="HP Pump control" style="rounded=1;whiteSpace=wrap;html=1;fillColor=#d5e8d4;strokeColor=#82b366;fontSize=10;" vertex="1" parent="1">
          <mxGeometry x="-215" y="580" width="120" height="75" as="geometry" />
        </mxCell>
        <mxCell id="AfocWXD33_CHXYOcDpQM-6" value="Cooling Fan&lt;br&gt;(1W)" style="rounded=1;whiteSpace=wrap;html=1;fillColor=#d5e8d4;strokeColor=#82b366;" vertex="1" parent="1">
          <mxGeometry x="-802.5" y="655" width="90" height="75" as="geometry" />
        </mxCell>
        <mxCell id="AfocWXD33_CHXYOcDpQM-37" value="Raw Water Solenoid&lt;br&gt;(20W)" style="rounded=1;whiteSpace=wrap;html=1;fillColor=#d5e8d4;strokeColor=#82b366;" vertex="1" parent="1">
          <mxGeometry x="-900" y="655" width="90" height="75" as="geometry" />
        </mxCell>
      </root>
    </mxGraphModel>
  </diagram>
  <diagram id="_45KuYhjzz-HIMXhBfma" name="Electrical - Low Voltage">
    <mxGraphModel dx="1661" dy="973" grid="1" gridSize="10" guides="1" tooltips="1" connect="1" arrows="1" fold="1" page="1" pageScale="1" pageWidth="1169" pageHeight="827" math="0" shadow="0">
      <root>
        <mxCell id="0" />
        <mxCell id="1" parent="0" />
        <mxCell id="x_ND8iMO5u4XvpR6Tjgj-1" value="&lt;span style=&quot;font-size: 40px;&quot;&gt;Aqua-O-M&lt;/span&gt;&lt;span style=&quot;color: rgba(0, 0, 0, 0); font-family: monospace; font-size: 0px; text-align: start; text-wrap-mode: nowrap;&quot;&gt;%3CmxGraphModel%3E%3Croot%3E%3CmxCell%20id%3D%220%22%2F%3E%3CmxCell%20id%3D%221%22%20parent%3D%220%22%2F%3E%3CmxCell%20id%3D%222%22%20value%3D%22%22%20style%3D%22endArrow%3Dnone%3Bhtml%3D1%3BentryX%3D1%3BentryY%3D1%3BentryDx%3D0%3BentryDy%3D0%3Bmovable%3D0%3Bresizable%3D0%3Brotatable%3D0%3Bdeletable%3D0%3Beditable%3D0%3Bconnectable%3D0%3B%22%20edge%3D%221%22%20parent%3D%221%22%3E%3CmxGeometry%20width%3D%2250%22%20height%3D%2250%22%20relative%3D%221%22%20as%3D%22geometry%22%3E%3CmxPoint%20x%3D%229%22%20y%3D%22813%22%20as%3D%22sourcePoint%22%2F%3E%3CmxPoint%20x%3D%221155%22%20y%3D%22813%22%20as%3D%22targetPoint%22%2F%3E%3C%2FmxGeometry%3E%3C%2FmxCell%3E%3C%2Froot%3E%3C%2FmxGraphModel%3E&lt;/span&gt;&lt;span style=&quot;font-size: 40px;&quot;&gt;atic - Low Voltage&lt;/span&gt;" style="text;html=1;strokeColor=none;fillColor=none;align=center;verticalAlign=middle;whiteSpace=wrap;rounded=0;fontSize=40;perimeterSpacing=0;fontStyle=4" vertex="1" parent="1">
          <mxGeometry x="152" y="41" width="865" height="30" as="geometry" />
        </mxCell>
        <mxCell id="x_ND8iMO5u4XvpR6Tjgj-2" value="" style="endArrow=none;html=1;entryX=1;entryY=1;entryDx=0;entryDy=0;movable=1;resizable=1;rotatable=1;deletable=1;editable=1;connectable=1;locked=0;" edge="1" parent="1">
          <mxGeometry width="50" height="50" relative="1" as="geometry">
            <mxPoint x="12" y="815" as="sourcePoint" />
            <mxPoint x="1158" y="815" as="targetPoint" />
          </mxGeometry>
        </mxCell>
        <mxCell id="x_ND8iMO5u4XvpR6Tjgj-3" value="" style="endArrow=none;html=1;movable=1;resizable=1;rotatable=1;deletable=1;editable=1;connectable=1;locked=0;" edge="1" parent="1">
          <mxGeometry width="50" height="50" relative="1" as="geometry">
            <mxPoint x="12" y="815" as="sourcePoint" />
            <mxPoint x="12" y="11" as="targetPoint" />
          </mxGeometry>
        </mxCell>
        <mxCell id="x_ND8iMO5u4XvpR6Tjgj-4" value="" style="endArrow=none;html=1;movable=1;resizable=1;rotatable=1;deletable=1;editable=1;connectable=1;locked=0;" edge="1" parent="1">
          <mxGeometry width="50" height="50" relative="1" as="geometry">
            <mxPoint x="1155" y="11" as="sourcePoint" />
            <mxPoint x="9" y="11" as="targetPoint" />
          </mxGeometry>
        </mxCell>
        <mxCell id="x_ND8iMO5u4XvpR6Tjgj-5" value="" style="endArrow=none;html=1;entryX=1;entryY=1;entryDx=0;entryDy=0;movable=1;resizable=1;rotatable=1;deletable=1;editable=1;connectable=1;locked=0;" edge="1" parent="1">
          <mxGeometry width="50" height="50" relative="1" as="geometry">
            <mxPoint x="1158" y="11" as="sourcePoint" />
            <mxPoint x="1158" y="815" as="targetPoint" />
          </mxGeometry>
        </mxCell>
      </root>
    </mxGraphModel>
  </diagram>
  <diagram id="UntdpLGKVkHwBIcnDH2k" name="Electrical - High Voltage">
    <mxGraphModel dx="2017" dy="1181" grid="1" gridSize="10" guides="1" tooltips="1" connect="1" arrows="1" fold="1" page="1" pageScale="1" pageWidth="1169" pageHeight="827" math="0" shadow="0">
      <root>
        <mxCell id="0" />
        <mxCell id="1" parent="0" />
        <mxCell id="qg14yAd7RvytMKRBU8gZ-1" value="&lt;span style=&quot;font-size: 40px;&quot;&gt;Aqua-O-M&lt;/span&gt;&lt;span style=&quot;color: rgba(0, 0, 0, 0); font-family: monospace; font-size: 0px; text-align: start; text-wrap-mode: nowrap;&quot;&gt;%3CmxGraphModel%3E%3Croot%3E%3CmxCell%20id%3D%220%22%2F%3E%3CmxCell%20id%3D%221%22%20parent%3D%220%22%2F%3E%3CmxCell%20id%3D%222%22%20value%3D%22%22%20style%3D%22endArrow%3Dnone%3Bhtml%3D1%3BentryX%3D1%3BentryY%3D1%3BentryDx%3D0%3BentryDy%3D0%3Bmovable%3D0%3Bresizable%3D0%3Brotatable%3D0%3Bdeletable%3D0%3Beditable%3D0%3Bconnectable%3D0%3B%22%20edge%3D%221%22%20parent%3D%221%22%3E%3CmxGeometry%20width%3D%2250%22%20height%3D%2250%22%20relative%3D%221%22%20as%3D%22geometry%22%3E%3CmxPoint%20x%3D%229%22%20y%3D%22813%22%20as%3D%22sourcePoint%22%2F%3E%3CmxPoint%20x%3D%221155%22%20y%3D%22813%22%20as%3D%22targetPoint%22%2F%3E%3C%2FmxGeometry%3E%3C%2FmxCell%3E%3C%2Froot%3E%3C%2FmxGraphModel%3E&lt;/span&gt;&lt;span style=&quot;font-size: 40px;&quot;&gt;atic - High Voltage&lt;/span&gt;" style="text;html=1;strokeColor=none;fillColor=none;align=center;verticalAlign=middle;whiteSpace=wrap;rounded=0;fontSize=40;perimeterSpacing=0;fontStyle=4" vertex="1" parent="1">
          <mxGeometry x="155" y="41" width="865" height="30" as="geometry" />
        </mxCell>
        <mxCell id="qg14yAd7RvytMKRBU8gZ-2" value="" style="endArrow=none;html=1;entryX=1;entryY=1;entryDx=0;entryDy=0;movable=1;resizable=1;rotatable=1;deletable=1;editable=1;connectable=1;locked=0;" edge="1" parent="1">
          <mxGeometry width="50" height="50" relative="1" as="geometry">
            <mxPoint x="12" y="815" as="sourcePoint" />
            <mxPoint x="1158" y="815" as="targetPoint" />
          </mxGeometry>
        </mxCell>
        <mxCell id="qg14yAd7RvytMKRBU8gZ-3" value="" style="endArrow=none;html=1;movable=1;resizable=1;rotatable=1;deletable=1;editable=1;connectable=1;locked=0;" edge="1" parent="1">
          <mxGeometry width="50" height="50" relative="1" as="geometry">
            <mxPoint x="12" y="815" as="sourcePoint" />
            <mxPoint x="12" y="11" as="targetPoint" />
          </mxGeometry>
        </mxCell>
        <mxCell id="qg14yAd7RvytMKRBU8gZ-4" value="" style="endArrow=none;html=1;movable=1;resizable=1;rotatable=1;deletable=1;editable=1;connectable=1;locked=0;" edge="1" parent="1">
          <mxGeometry width="50" height="50" relative="1" as="geometry">
            <mxPoint x="1155" y="11" as="sourcePoint" />
            <mxPoint x="9" y="11" as="targetPoint" />
          </mxGeometry>
        </mxCell>
        <mxCell id="qg14yAd7RvytMKRBU8gZ-5" value="" style="endArrow=none;html=1;entryX=1;entryY=1;entryDx=0;entryDy=0;movable=1;resizable=1;rotatable=1;deletable=1;editable=1;connectable=1;locked=0;" edge="1" parent="1">
          <mxGeometry width="50" height="50" relative="1" as="geometry">
            <mxPoint x="1158" y="11" as="sourcePoint" />
            <mxPoint x="1158" y="815" as="targetPoint" />
          </mxGeometry>
        </mxCell>
      </root>
    </mxGraphModel>
  </diagram>
  <diagram id="ieFlHofgNH5azMxKc_Rc" name="State Machine">
    <mxGraphModel dx="3186" dy="1181" grid="1" gridSize="10" guides="1" tooltips="1" connect="1" arrows="1" fold="1" page="1" pageScale="1" pageWidth="1169" pageHeight="827" math="0" shadow="0">
      <root>
        <mxCell id="0" />
        <mxCell id="1" parent="0" />
        <mxCell id="HOrYSGtQTr-Vylgke4-b-1" value="&lt;span style=&quot;font-size: 40px;&quot;&gt;Aqua-O-M&lt;/span&gt;&lt;span style=&quot;color: rgba(0, 0, 0, 0); font-family: monospace; font-size: 0px; text-align: start; text-wrap-mode: nowrap;&quot;&gt;%3CmxGraphModel%3E%3Croot%3E%3CmxCell%20id%3D%220%22%2F%3E%3CmxCell%20id%3D%221%22%20parent%3D%220%22%2F%3E%3CmxCell%20id%3D%222%22%20value%3D%22%22%20style%3D%22endArrow%3Dnone%3Bhtml%3D1%3BentryX%3D1%3BentryY%3D1%3BentryDx%3D0%3BentryDy%3D0%3Bmovable%3D0%3Bresizable%3D0%3Brotatable%3D0%3Bdeletable%3D0%3Beditable%3D0%3Bconnectable%3D0%3B%22%20edge%3D%221%22%20parent%3D%221%22%3E%3CmxGeometry%20width%3D%2250%22%20height%3D%2250%22%20relative%3D%221%22%20as%3D%22geometry%22%3E%3CmxPoint%20x%3D%229%22%20y%3D%22813%22%20as%3D%22sourcePoint%22%2F%3E%3CmxPoint%20x%3D%221155%22%20y%3D%22813%22%20as%3D%22targetPoint%22%2F%3E%3C%2FmxGeometry%3E%3C%2FmxCell%3E%3C%2Froot%3E%3C%2FmxGraphModel%3E&lt;/span&gt;&lt;span style=&quot;font-size: 40px;&quot;&gt;atic - State Machine&lt;/span&gt;" style="text;html=1;strokeColor=none;fillColor=none;align=center;verticalAlign=middle;whiteSpace=wrap;rounded=0;fontSize=40;perimeterSpacing=0;fontStyle=4" vertex="1" parent="1">
          <mxGeometry x="-1031" y="40" width="865" height="30" as="geometry" />
        </mxCell>
        <mxCell id="HOrYSGtQTr-Vylgke4-b-2" value="" style="endArrow=none;html=1;entryX=1;entryY=1;entryDx=0;entryDy=0;movable=1;resizable=1;rotatable=1;deletable=1;editable=1;connectable=1;locked=0;" edge="1" parent="1">
          <mxGeometry width="50" height="50" relative="1" as="geometry">
            <mxPoint x="-1159" y="814" as="sourcePoint" />
            <mxPoint x="-13" y="814" as="targetPoint" />
          </mxGeometry>
        </mxCell>
        <mxCell id="HOrYSGtQTr-Vylgke4-b-3" value="" style="endArrow=none;html=1;movable=1;resizable=1;rotatable=1;deletable=1;editable=1;connectable=1;locked=0;" edge="1" parent="1">
          <mxGeometry width="50" height="50" relative="1" as="geometry">
            <mxPoint x="-1159" y="814" as="sourcePoint" />
            <mxPoint x="-1159" y="10" as="targetPoint" />
          </mxGeometry>
        </mxCell>
        <mxCell id="HOrYSGtQTr-Vylgke4-b-4" value="" style="endArrow=none;html=1;movable=1;resizable=1;rotatable=1;deletable=1;editable=1;connectable=1;locked=0;" edge="1" parent="1">
          <mxGeometry width="50" height="50" relative="1" as="geometry">
            <mxPoint x="-16" y="10" as="sourcePoint" />
            <mxPoint x="-1162" y="10" as="targetPoint" />
          </mxGeometry>
        </mxCell>
        <mxCell id="HOrYSGtQTr-Vylgke4-b-5" value="" style="endArrow=none;html=1;entryX=1;entryY=1;entryDx=0;entryDy=0;movable=1;resizable=1;rotatable=1;deletable=1;editable=1;connectable=1;locked=0;" edge="1" parent="1">
          <mxGeometry width="50" height="50" relative="1" as="geometry">
            <mxPoint x="-13" y="10" as="sourcePoint" />
            <mxPoint x="-13" y="814" as="targetPoint" />
          </mxGeometry>
        </mxCell>
        <mxCell id="a4d4Pg_-Ynrb5DIpNWXH-1" value="&lt;b&gt;STARTUP&lt;br&gt;&lt;/b&gt;&lt;br&gt;* motors off&lt;br&gt;* solenoids off&lt;br&gt;* open HP valve&lt;br&gt;* diverter off" style="rounded=1;whiteSpace=wrap;html=1;fillColor=#dae8fc;strokeColor=#6c8ebf;align=left;spacingLeft=10;verticalAlign=middle;" vertex="1" parent="1">
          <mxGeometry x="-1123.5" y="390.67" width="112" height="100.53" as="geometry" />
        </mxCell>
        <mxCell id="a4d4Pg_-Ynrb5DIpNWXH-2" value="Pickled?" style="rhombus;whiteSpace=wrap;html=1;fillColor=#fff2cc;strokeColor=#d6b656;fontSize=10;" vertex="1" parent="1">
          <mxGeometry x="-993.5" y="400.94" width="80" height="80" as="geometry" />
        </mxCell>
        <mxCell id="a4d4Pg_-Ynrb5DIpNWXH-3" value="&lt;b&gt;PICKLED&lt;/b&gt;&lt;br&gt;&lt;br&gt;* wait loop" style="rounded=1;whiteSpace=wrap;html=1;fillColor=#dae8fc;strokeColor=#6c8ebf;align=left;verticalAlign=middle;spacingLeft=10;" vertex="1" parent="1">
          <mxGeometry x="-998.5" y="580" width="90" height="50" as="geometry" />
        </mxCell>
        <mxCell id="a4d4Pg_-Ynrb5DIpNWXH-4" value="&lt;b&gt;FLUSHING&lt;/b&gt;&lt;br style=&quot;font-size: 12px;&quot;&gt;&lt;br&gt;* HP valve open&lt;br style=&quot;font-size: 12px;&quot;&gt;* Flush valve open&lt;br style=&quot;font-size: 12px;&quot;&gt;* Wait $X seconds&lt;br&gt;* Flush valve closed" style="rounded=1;whiteSpace=wrap;html=1;fillColor=#dae8fc;strokeColor=#6c8ebf;fontSize=12;align=left;spacingLeft=10;verticalAlign=middle;" vertex="1" parent="1">
          <mxGeometry x="-804.5" y="580" width="190" height="110" as="geometry" />
        </mxCell>
        <mxCell id="a4d4Pg_-Ynrb5DIpNWXH-5" value="&lt;b&gt;IDLE&lt;/b&gt;&lt;br&gt;&lt;br&gt;* wait loop" style="rounded=1;whiteSpace=wrap;html=1;fillColor=#dae8fc;strokeColor=#6c8ebf;spacingLeft=10;align=left;verticalAlign=middle;" vertex="1" parent="1">
          <mxGeometry x="-853.5" y="274" width="90" height="72" as="geometry" />
        </mxCell>
        <mxCell id="a4d4Pg_-Ynrb5DIpNWXH-6" value="" style="endArrow=classic;html=1;rounded=0;exitX=1;exitY=0.5;exitDx=0;exitDy=0;entryX=0;entryY=0.5;entryDx=0;entryDy=0;" edge="1" parent="1" source="a4d4Pg_-Ynrb5DIpNWXH-1" target="a4d4Pg_-Ynrb5DIpNWXH-2">
          <mxGeometry width="50" height="50" relative="1" as="geometry">
            <mxPoint x="-723.5" y="488.94" as="sourcePoint" />
            <mxPoint x="-673.5" y="438.94" as="targetPoint" />
          </mxGeometry>
        </mxCell>
        <mxCell id="a4d4Pg_-Ynrb5DIpNWXH-7" value="" style="endArrow=classic;html=1;rounded=0;exitX=0.5;exitY=0;exitDx=0;exitDy=0;entryX=0;entryY=0.25;entryDx=0;entryDy=0;" edge="1" parent="1" source="a4d4Pg_-Ynrb5DIpNWXH-2" target="a4d4Pg_-Ynrb5DIpNWXH-5">
          <mxGeometry width="50" height="50" relative="1" as="geometry">
            <mxPoint x="-1023.5" y="412" as="sourcePoint" />
            <mxPoint x="-983.5" y="412" as="targetPoint" />
            <Array as="points">
              <mxPoint x="-953.5" y="292" />
            </Array>
          </mxGeometry>
        </mxCell>
        <mxCell id="a4d4Pg_-Ynrb5DIpNWXH-8" value="NO" style="edgeLabel;html=1;align=center;verticalAlign=middle;resizable=0;points=[];labelBorderColor=default;" vertex="1" connectable="0" parent="a4d4Pg_-Ynrb5DIpNWXH-7">
          <mxGeometry x="0.0414" y="4" relative="1" as="geometry">
            <mxPoint y="92" as="offset" />
          </mxGeometry>
        </mxCell>
        <mxCell id="a4d4Pg_-Ynrb5DIpNWXH-9" value="" style="endArrow=classic;html=1;rounded=0;exitX=0.5;exitY=1;exitDx=0;exitDy=0;" edge="1" parent="1" source="a4d4Pg_-Ynrb5DIpNWXH-2" target="a4d4Pg_-Ynrb5DIpNWXH-3">
          <mxGeometry width="50" height="50" relative="1" as="geometry">
            <mxPoint x="-943.5" y="372" as="sourcePoint" />
            <mxPoint x="-923.5" y="550" as="targetPoint" />
          </mxGeometry>
        </mxCell>
        <mxCell id="a4d4Pg_-Ynrb5DIpNWXH-10" value="YES" style="edgeLabel;html=1;align=center;verticalAlign=middle;resizable=0;points=[];labelBorderColor=default;" vertex="1" connectable="0" parent="a4d4Pg_-Ynrb5DIpNWXH-9">
          <mxGeometry x="0.0414" y="4" relative="1" as="geometry">
            <mxPoint x="-4" y="-32" as="offset" />
          </mxGeometry>
        </mxCell>
        <mxCell id="a4d4Pg_-Ynrb5DIpNWXH-11" value="" style="endArrow=classic;html=1;rounded=0;exitX=0.5;exitY=1;exitDx=0;exitDy=0;entryX=0.5;entryY=0;entryDx=0;entryDy=0;" edge="1" parent="1" source="a4d4Pg_-Ynrb5DIpNWXH-3" target="a4d4Pg_-Ynrb5DIpNWXH-44">
          <mxGeometry width="50" height="50" relative="1" as="geometry">
            <mxPoint x="-703.5" y="588" as="sourcePoint" />
            <mxPoint x="-653.5" y="538" as="targetPoint" />
          </mxGeometry>
        </mxCell>
        <mxCell id="a4d4Pg_-Ynrb5DIpNWXH-12" value="" style="endArrow=classic;html=1;rounded=0;exitX=1;exitY=0.5;exitDx=0;exitDy=0;entryX=0;entryY=0.75;entryDx=0;entryDy=0;" edge="1" parent="1" source="a4d4Pg_-Ynrb5DIpNWXH-4" target="a4d4Pg_-Ynrb5DIpNWXH-5">
          <mxGeometry width="50" height="50" relative="1" as="geometry">
            <mxPoint x="-723.5" y="450" as="sourcePoint" />
            <mxPoint x="-853.5" y="340" as="targetPoint" />
            <Array as="points">
              <mxPoint x="-593.5" y="635" />
              <mxPoint x="-593.5" y="560" />
              <mxPoint x="-883.5" y="560" />
              <mxPoint x="-883.5" y="328" />
            </Array>
          </mxGeometry>
        </mxCell>
        <mxCell id="a4d4Pg_-Ynrb5DIpNWXH-13" value="" style="endArrow=classic;html=1;rounded=0;exitX=1;exitY=0.5;exitDx=0;exitDy=0;entryX=0;entryY=0.5;entryDx=0;entryDy=0;" edge="1" parent="1" source="a4d4Pg_-Ynrb5DIpNWXH-5" target="a4d4Pg_-Ynrb5DIpNWXH-46">
          <mxGeometry width="50" height="50" relative="1" as="geometry">
            <mxPoint x="-703.5" y="450" as="sourcePoint" />
            <mxPoint x="-723.5" y="340.0000000000002" as="targetPoint" />
          </mxGeometry>
        </mxCell>
        <mxCell id="a4d4Pg_-Ynrb5DIpNWXH-14" value="&lt;b&gt;RUNNING&lt;br&gt;&lt;/b&gt;&lt;br&gt;* HP valve open&lt;br&gt;* solenoids off&lt;br&gt;* boost pump on&lt;br&gt;* wait for LP target&lt;br style=&quot;border-color: var(--border-color);&quot;&gt;* HP pump on&lt;br style=&quot;border-color: var(--border-color);&quot;&gt;* start HP PID loop&lt;br style=&quot;border-color: var(--border-color);&quot;&gt;* delay $X seconds&lt;br&gt;* wait for HP target&lt;br&gt;* wait for flowrate target&lt;br&gt;* wait for salinity target&lt;br&gt;* diverter valve open&lt;br&gt;* zero out elapsed&lt;br style=&quot;border-color: var(--border-color);&quot;&gt;* zero out volume&lt;br&gt;* sensor check loop&lt;br&gt;* check end conditions" style="rounded=1;whiteSpace=wrap;html=1;fillColor=#dae8fc;strokeColor=#6c8ebf;align=left;spacingLeft=10;verticalAlign=middle;" vertex="1" parent="1">
          <mxGeometry x="-589.5" y="175" width="155.5" height="270" as="geometry" />
        </mxCell>
        <mxCell id="a4d4Pg_-Ynrb5DIpNWXH-15" value="" style="endArrow=classic;html=1;rounded=0;exitX=1;exitY=0.5;exitDx=0;exitDy=0;entryX=0;entryY=0.5;entryDx=0;entryDy=0;" edge="1" parent="1" source="a4d4Pg_-Ynrb5DIpNWXH-46" target="a4d4Pg_-Ynrb5DIpNWXH-14">
          <mxGeometry width="50" height="50" relative="1" as="geometry">
            <mxPoint x="-633.5" y="340.0000000000002" as="sourcePoint" />
            <mxPoint x="-513.5" y="370" as="targetPoint" />
          </mxGeometry>
        </mxCell>
        <mxCell id="a4d4Pg_-Ynrb5DIpNWXH-16" value="" style="endArrow=classic;html=1;rounded=0;entryX=0;entryY=0.5;entryDx=0;entryDy=0;exitX=1;exitY=0.5;exitDx=0;exitDy=0;" edge="1" parent="1" source="a4d4Pg_-Ynrb5DIpNWXH-14" target="a4d4Pg_-Ynrb5DIpNWXH-25">
          <mxGeometry width="50" height="50" relative="1" as="geometry">
            <mxPoint x="-433.5" y="330" as="sourcePoint" />
            <mxPoint x="-348" y="345" as="targetPoint" />
            <Array as="points">
              <mxPoint x="-393.5" y="310" />
              <mxPoint x="-393.5" y="130" />
            </Array>
          </mxGeometry>
        </mxCell>
        <mxCell id="a4d4Pg_-Ynrb5DIpNWXH-17" value="Low&lt;br style=&quot;font-size: 10px;&quot;&gt;Pressure?" style="rhombus;whiteSpace=wrap;html=1;fillColor=#fff2cc;strokeColor=#d6b656;fontSize=10;" vertex="1" parent="1">
          <mxGeometry x="-348" y="450" width="80" height="80" as="geometry" />
        </mxCell>
        <mxCell id="a4d4Pg_-Ynrb5DIpNWXH-18" value="Low&lt;br style=&quot;font-size: 10px;&quot;&gt;Flowrate?" style="rhombus;whiteSpace=wrap;html=1;fillColor=#fff2cc;strokeColor=#d6b656;fontSize=10;" vertex="1" parent="1">
          <mxGeometry x="-348" y="540" width="80" height="80" as="geometry" />
        </mxCell>
        <mxCell id="a4d4Pg_-Ynrb5DIpNWXH-19" value="High&lt;br style=&quot;font-size: 10px;&quot;&gt;Salinity?" style="rhombus;whiteSpace=wrap;html=1;fillColor=#fff2cc;strokeColor=#d6b656;fontSize=10;" vertex="1" parent="1">
          <mxGeometry x="-348" y="630" width="80" height="80" as="geometry" />
        </mxCell>
        <mxCell id="a4d4Pg_-Ynrb5DIpNWXH-20" value="" style="endArrow=classic;html=1;rounded=0;entryX=0;entryY=0.5;entryDx=0;entryDy=0;exitX=1;exitY=0.5;exitDx=0;exitDy=0;" edge="1" parent="1" source="a4d4Pg_-Ynrb5DIpNWXH-14" target="a4d4Pg_-Ynrb5DIpNWXH-18">
          <mxGeometry width="50" height="50" relative="1" as="geometry">
            <mxPoint x="-503.5" y="340" as="sourcePoint" />
            <mxPoint x="-453.5" y="350" as="targetPoint" />
            <Array as="points">
              <mxPoint x="-393.5" y="310" />
              <mxPoint x="-393.5" y="580" />
            </Array>
          </mxGeometry>
        </mxCell>
        <mxCell id="a4d4Pg_-Ynrb5DIpNWXH-21" value="" style="endArrow=classic;html=1;rounded=0;entryX=0;entryY=0.5;entryDx=0;entryDy=0;exitX=1;exitY=0.5;exitDx=0;exitDy=0;" edge="1" parent="1" source="a4d4Pg_-Ynrb5DIpNWXH-14" target="a4d4Pg_-Ynrb5DIpNWXH-19">
          <mxGeometry width="50" height="50" relative="1" as="geometry">
            <mxPoint x="-433.5" y="330" as="sourcePoint" />
            <mxPoint x="-338" y="355" as="targetPoint" />
            <Array as="points">
              <mxPoint x="-393.5" y="310" />
              <mxPoint x="-393.5" y="670" />
            </Array>
          </mxGeometry>
        </mxCell>
        <mxCell id="a4d4Pg_-Ynrb5DIpNWXH-22" value="&lt;b&gt;Error:&lt;br&gt;&lt;/b&gt;&lt;br&gt;* Notify&lt;br&gt;* Valves Open&lt;br&gt;* Pumps Off" style="rounded=1;whiteSpace=wrap;html=1;fillColor=#f8cecc;strokeColor=#b85450;spacingLeft=10;align=left;" vertex="1" parent="1">
          <mxGeometry x="-193.5" y="530" width="100" height="100" as="geometry" />
        </mxCell>
        <mxCell id="a4d4Pg_-Ynrb5DIpNWXH-23" value="" style="endArrow=classic;html=1;rounded=0;entryX=0;entryY=0.5;entryDx=0;entryDy=0;exitX=1;exitY=0.5;exitDx=0;exitDy=0;" edge="1" parent="1" source="a4d4Pg_-Ynrb5DIpNWXH-18" target="a4d4Pg_-Ynrb5DIpNWXH-22">
          <mxGeometry width="50" height="50" relative="1" as="geometry">
            <mxPoint x="-378" y="500" as="sourcePoint" />
            <mxPoint x="-338" y="606" as="targetPoint" />
          </mxGeometry>
        </mxCell>
        <mxCell id="a4d4Pg_-Ynrb5DIpNWXH-24" value="Tank&lt;br style=&quot;font-size: 10px;&quot;&gt;Full&lt;br style=&quot;font-size: 10px;&quot;&gt;Switch?" style="rhombus;whiteSpace=wrap;html=1;fillColor=#fff2cc;strokeColor=#d6b656;fontSize=10;" vertex="1" parent="1">
          <mxGeometry x="-348" y="270" width="80" height="80" as="geometry" />
        </mxCell>
        <mxCell id="a4d4Pg_-Ynrb5DIpNWXH-25" value="Time&lt;br style=&quot;font-size: 10px;&quot;&gt;Reached?" style="rhombus;whiteSpace=wrap;html=1;fillColor=#fff2cc;strokeColor=#d6b656;fontSize=10;" vertex="1" parent="1">
          <mxGeometry x="-348" y="90" width="80" height="80" as="geometry" />
        </mxCell>
        <mxCell id="a4d4Pg_-Ynrb5DIpNWXH-26" value="Volume&lt;br style=&quot;font-size: 10px;&quot;&gt;Reached?" style="rhombus;whiteSpace=wrap;html=1;fillColor=#fff2cc;strokeColor=#d6b656;fontSize=10;" vertex="1" parent="1">
          <mxGeometry x="-348" y="180" width="80" height="80" as="geometry" />
        </mxCell>
        <mxCell id="a4d4Pg_-Ynrb5DIpNWXH-27" value="" style="endArrow=classic;html=1;rounded=0;entryX=0;entryY=0.5;entryDx=0;entryDy=0;exitX=1;exitY=0.5;exitDx=0;exitDy=0;" edge="1" parent="1" source="a4d4Pg_-Ynrb5DIpNWXH-14" target="a4d4Pg_-Ynrb5DIpNWXH-26">
          <mxGeometry width="50" height="50" relative="1" as="geometry">
            <mxPoint x="-433.5" y="331" as="sourcePoint" />
            <mxPoint x="-338" y="135" as="targetPoint" />
            <Array as="points">
              <mxPoint x="-393.5" y="310" />
              <mxPoint x="-393.5" y="220" />
            </Array>
          </mxGeometry>
        </mxCell>
        <mxCell id="a4d4Pg_-Ynrb5DIpNWXH-28" value="" style="endArrow=classic;html=1;rounded=0;entryX=0;entryY=0.5;entryDx=0;entryDy=0;exitX=1;exitY=0.5;exitDx=0;exitDy=0;" edge="1" parent="1" source="a4d4Pg_-Ynrb5DIpNWXH-14" target="a4d4Pg_-Ynrb5DIpNWXH-24">
          <mxGeometry width="50" height="50" relative="1" as="geometry">
            <mxPoint x="-433.5" y="320" as="sourcePoint" />
            <mxPoint x="-338" y="225" as="targetPoint" />
            <Array as="points">
              <mxPoint x="-393.5" y="310" />
            </Array>
          </mxGeometry>
        </mxCell>
        <mxCell id="a4d4Pg_-Ynrb5DIpNWXH-29" value="" style="endArrow=classic;html=1;rounded=0;entryX=0;entryY=0.5;entryDx=0;entryDy=0;exitX=1;exitY=0.5;exitDx=0;exitDy=0;" edge="1" parent="1" source="a4d4Pg_-Ynrb5DIpNWXH-14" target="a4d4Pg_-Ynrb5DIpNWXH-17">
          <mxGeometry width="50" height="50" relative="1" as="geometry">
            <mxPoint x="-433.5" y="230" as="sourcePoint" />
            <mxPoint x="-338" y="315" as="targetPoint" />
            <Array as="points">
              <mxPoint x="-393.5" y="310" />
              <mxPoint x="-393.5" y="490" />
            </Array>
          </mxGeometry>
        </mxCell>
        <mxCell id="a4d4Pg_-Ynrb5DIpNWXH-30" value="Stop&lt;br style=&quot;font-size: 10px;&quot;&gt;Command?" style="rhombus;whiteSpace=wrap;html=1;fillColor=#fff2cc;strokeColor=#d6b656;fontSize=10;" vertex="1" parent="1">
          <mxGeometry x="-348" y="360" width="80" height="80" as="geometry" />
        </mxCell>
        <mxCell id="a4d4Pg_-Ynrb5DIpNWXH-31" value="" style="endArrow=classic;html=1;rounded=0;entryX=0;entryY=0.5;entryDx=0;entryDy=0;exitX=1;exitY=0.5;exitDx=0;exitDy=0;" edge="1" parent="1" source="a4d4Pg_-Ynrb5DIpNWXH-14" target="a4d4Pg_-Ynrb5DIpNWXH-30">
          <mxGeometry width="50" height="50" relative="1" as="geometry">
            <mxPoint x="-423.5" y="300" as="sourcePoint" />
            <mxPoint x="-338" y="497" as="targetPoint" />
            <Array as="points">
              <mxPoint x="-393.5" y="310" />
              <mxPoint x="-393.5" y="399" />
            </Array>
          </mxGeometry>
        </mxCell>
        <mxCell id="a4d4Pg_-Ynrb5DIpNWXH-32" value="" style="endArrow=classic;html=1;rounded=0;entryX=0;entryY=0.5;entryDx=0;entryDy=0;exitX=1;exitY=0.5;exitDx=0;exitDy=0;" edge="1" parent="1" source="a4d4Pg_-Ynrb5DIpNWXH-17" target="a4d4Pg_-Ynrb5DIpNWXH-22">
          <mxGeometry width="50" height="50" relative="1" as="geometry">
            <mxPoint x="-258" y="585" as="sourcePoint" />
            <mxPoint x="-218" y="585" as="targetPoint" />
            <Array as="points">
              <mxPoint x="-243.5" y="490" />
              <mxPoint x="-243.5" y="580" />
            </Array>
          </mxGeometry>
        </mxCell>
        <mxCell id="a4d4Pg_-Ynrb5DIpNWXH-33" value="" style="endArrow=classic;html=1;rounded=0;entryX=0;entryY=0.5;entryDx=0;entryDy=0;exitX=1;exitY=0.5;exitDx=0;exitDy=0;" edge="1" parent="1" source="a4d4Pg_-Ynrb5DIpNWXH-19" target="a4d4Pg_-Ynrb5DIpNWXH-22">
          <mxGeometry width="50" height="50" relative="1" as="geometry">
            <mxPoint x="-258" y="497" as="sourcePoint" />
            <mxPoint x="-218" y="585" as="targetPoint" />
            <Array as="points">
              <mxPoint x="-243.5" y="670" />
              <mxPoint x="-243.5" y="580" />
            </Array>
          </mxGeometry>
        </mxCell>
        <mxCell id="a4d4Pg_-Ynrb5DIpNWXH-34" value="" style="endArrow=classic;html=1;rounded=0;exitX=1;exitY=0.5;exitDx=0;exitDy=0;entryX=0;entryY=0.5;entryDx=0;entryDy=0;" edge="1" parent="1" source="a4d4Pg_-Ynrb5DIpNWXH-22" target="a4d4Pg_-Ynrb5DIpNWXH-4">
          <mxGeometry width="50" height="50" relative="1" as="geometry">
            <mxPoint x="-373.5" y="668" as="sourcePoint" />
            <mxPoint x="-603.5" y="580" as="targetPoint" />
            <Array as="points">
              <mxPoint x="-53.5" y="580" />
              <mxPoint x="-53.5" y="730" />
              <mxPoint x="-853.5" y="730" />
              <mxPoint x="-853.5" y="635" />
            </Array>
          </mxGeometry>
        </mxCell>
        <mxCell id="a4d4Pg_-Ynrb5DIpNWXH-35" value="&lt;b&gt;Success:&lt;br&gt;&lt;/b&gt;&lt;br&gt;* Notify&lt;br&gt;* Valves Open&lt;br&gt;* Pumps Off" style="rounded=1;whiteSpace=wrap;html=1;fillColor=#d5e8d4;strokeColor=#82b366;align=left;spacingLeft=10;" vertex="1" parent="1">
          <mxGeometry x="-193.5" y="210" width="100" height="100" as="geometry" />
        </mxCell>
        <mxCell id="a4d4Pg_-Ynrb5DIpNWXH-36" value="" style="endArrow=classic;html=1;rounded=0;entryX=0;entryY=0.5;entryDx=0;entryDy=0;exitX=1;exitY=0.5;exitDx=0;exitDy=0;" edge="1" parent="1" source="a4d4Pg_-Ynrb5DIpNWXH-25" target="a4d4Pg_-Ynrb5DIpNWXH-35">
          <mxGeometry width="50" height="50" relative="1" as="geometry">
            <mxPoint x="-258" y="497" as="sourcePoint" />
            <mxPoint x="-198" y="585" as="targetPoint" />
            <Array as="points">
              <mxPoint x="-233.5" y="130" />
              <mxPoint x="-233.5" y="260" />
            </Array>
          </mxGeometry>
        </mxCell>
        <mxCell id="a4d4Pg_-Ynrb5DIpNWXH-37" value="" style="endArrow=classic;html=1;rounded=0;entryX=0;entryY=0.5;entryDx=0;entryDy=0;exitX=1;exitY=0.5;exitDx=0;exitDy=0;" edge="1" parent="1" source="a4d4Pg_-Ynrb5DIpNWXH-26" target="a4d4Pg_-Ynrb5DIpNWXH-35">
          <mxGeometry width="50" height="50" relative="1" as="geometry">
            <mxPoint x="-258" y="135" as="sourcePoint" />
            <mxPoint x="-198" y="283" as="targetPoint" />
            <Array as="points">
              <mxPoint x="-233.5" y="220" />
              <mxPoint x="-233.5" y="260" />
            </Array>
          </mxGeometry>
        </mxCell>
        <mxCell id="a4d4Pg_-Ynrb5DIpNWXH-38" value="" style="endArrow=classic;html=1;rounded=0;entryX=0;entryY=0.5;entryDx=0;entryDy=0;exitX=1;exitY=0.5;exitDx=0;exitDy=0;" edge="1" parent="1" source="a4d4Pg_-Ynrb5DIpNWXH-24" target="a4d4Pg_-Ynrb5DIpNWXH-35">
          <mxGeometry width="50" height="50" relative="1" as="geometry">
            <mxPoint x="-258" y="225" as="sourcePoint" />
            <mxPoint x="-198" y="283" as="targetPoint" />
            <Array as="points">
              <mxPoint x="-233.5" y="310" />
              <mxPoint x="-233.5" y="260" />
            </Array>
          </mxGeometry>
        </mxCell>
        <mxCell id="a4d4Pg_-Ynrb5DIpNWXH-39" value="" style="endArrow=classic;html=1;rounded=0;entryX=0;entryY=0.5;entryDx=0;entryDy=0;exitX=1;exitY=0.5;exitDx=0;exitDy=0;" edge="1" parent="1" source="a4d4Pg_-Ynrb5DIpNWXH-30" target="a4d4Pg_-Ynrb5DIpNWXH-35">
          <mxGeometry width="50" height="50" relative="1" as="geometry">
            <mxPoint x="-263.5" y="370" as="sourcePoint" />
            <mxPoint x="-198" y="283" as="targetPoint" />
            <Array as="points">
              <mxPoint x="-233.5" y="400" />
              <mxPoint x="-233.5" y="260" />
            </Array>
          </mxGeometry>
        </mxCell>
        <mxCell id="a4d4Pg_-Ynrb5DIpNWXH-40" value="" style="endArrow=classic;html=1;rounded=0;exitX=1;exitY=0.5;exitDx=0;exitDy=0;" edge="1" parent="1" source="a4d4Pg_-Ynrb5DIpNWXH-35">
          <mxGeometry width="50" height="50" relative="1" as="geometry">
            <mxPoint x="-255.20000000000005" y="407.30000000000007" as="sourcePoint" />
            <mxPoint x="-53.5" y="580" as="targetPoint" />
            <Array as="points">
              <mxPoint x="-53.5" y="260" />
            </Array>
          </mxGeometry>
        </mxCell>
        <mxCell id="a4d4Pg_-Ynrb5DIpNWXH-41" value="Auto&lt;br style=&quot;font-size: 10px;&quot;&gt;Flush&lt;br style=&quot;font-size: 10px;&quot;&gt;Time?" style="rhombus;whiteSpace=wrap;html=1;fillColor=#fff2cc;strokeColor=#d6b656;fontSize=10;" vertex="1" parent="1">
          <mxGeometry x="-848.5" y="410" width="80" height="80" as="geometry" />
        </mxCell>
        <mxCell id="a4d4Pg_-Ynrb5DIpNWXH-42" value="" style="endArrow=classic;html=1;rounded=0;exitX=0.5;exitY=1;exitDx=0;exitDy=0;entryX=0.5;entryY=0;entryDx=0;entryDy=0;" edge="1" parent="1" source="a4d4Pg_-Ynrb5DIpNWXH-5" target="a4d4Pg_-Ynrb5DIpNWXH-41">
          <mxGeometry width="50" height="50" relative="1" as="geometry">
            <mxPoint x="-753.5" y="349.9999999999999" as="sourcePoint" />
            <mxPoint x="-713.5" y="349.9999999999999" as="targetPoint" />
          </mxGeometry>
        </mxCell>
        <mxCell id="a4d4Pg_-Ynrb5DIpNWXH-43" value="" style="endArrow=classic;html=1;rounded=0;exitX=0.5;exitY=1;exitDx=0;exitDy=0;entryX=0;entryY=0.75;entryDx=0;entryDy=0;" edge="1" parent="1" source="a4d4Pg_-Ynrb5DIpNWXH-41" target="a4d4Pg_-Ynrb5DIpNWXH-4">
          <mxGeometry width="50" height="50" relative="1" as="geometry">
            <mxPoint x="-798.5" y="371.9999999999999" as="sourcePoint" />
            <mxPoint x="-733.5" y="640" as="targetPoint" />
            <Array as="points">
              <mxPoint x="-808.5" y="540" />
              <mxPoint x="-573.5" y="540" />
              <mxPoint x="-573.5" y="710" />
              <mxPoint x="-833.5" y="710" />
              <mxPoint x="-833.5" y="663" />
            </Array>
          </mxGeometry>
        </mxCell>
        <mxCell id="a4d4Pg_-Ynrb5DIpNWXH-44" value="Flush?" style="rhombus;whiteSpace=wrap;html=1;fillColor=#fff2cc;strokeColor=#d6b656;fontSize=10;" vertex="1" parent="1">
          <mxGeometry x="-993.5" y="659" width="80" height="80" as="geometry" />
        </mxCell>
        <mxCell id="a4d4Pg_-Ynrb5DIpNWXH-45" value="" style="endArrow=classic;html=1;rounded=0;exitX=1;exitY=0.5;exitDx=0;exitDy=0;entryX=0;entryY=0.25;entryDx=0;entryDy=0;" edge="1" parent="1" source="a4d4Pg_-Ynrb5DIpNWXH-44" target="a4d4Pg_-Ynrb5DIpNWXH-4">
          <mxGeometry width="50" height="50" relative="1" as="geometry">
            <mxPoint x="-943.5" y="634" as="sourcePoint" />
            <mxPoint x="-743.5" y="720" as="targetPoint" />
            <Array as="points">
              <mxPoint x="-873.5" y="700" />
              <mxPoint x="-873.5" y="608" />
            </Array>
          </mxGeometry>
        </mxCell>
        <mxCell id="a4d4Pg_-Ynrb5DIpNWXH-46" value="Start?&lt;br&gt;(Time, Volume, or Auto)" style="rhombus;whiteSpace=wrap;html=1;fillColor=#fff2cc;strokeColor=#d6b656;fontSize=10;" vertex="1" parent="1">
          <mxGeometry x="-713.5" y="270" width="80" height="80" as="geometry" />
        </mxCell>
        <mxCell id="a4d4Pg_-Ynrb5DIpNWXH-47" value="Pickle?" style="rhombus;whiteSpace=wrap;html=1;fillColor=#fff2cc;strokeColor=#d6b656;fontSize=10;" vertex="1" parent="1">
          <mxGeometry x="-848.5" y="150" width="80" height="80" as="geometry" />
        </mxCell>
        <mxCell id="a4d4Pg_-Ynrb5DIpNWXH-48" value="" style="endArrow=classic;html=1;rounded=0;fontSize=10;exitX=0.5;exitY=0;exitDx=0;exitDy=0;entryX=0.5;entryY=1;entryDx=0;entryDy=0;" edge="1" parent="1" source="a4d4Pg_-Ynrb5DIpNWXH-5" target="a4d4Pg_-Ynrb5DIpNWXH-47">
          <mxGeometry width="50" height="50" relative="1" as="geometry">
            <mxPoint x="-833.5" y="330" as="sourcePoint" />
            <mxPoint x="-783.5" y="280" as="targetPoint" />
          </mxGeometry>
        </mxCell>
        <mxCell id="a4d4Pg_-Ynrb5DIpNWXH-49" value="&lt;b&gt;PICKLE&lt;br&gt;&lt;/b&gt;&lt;br&gt;* Prompt user&lt;br&gt;* HP valve open&lt;br&gt;* solenoids off&lt;br style=&quot;border-color: var(--border-color);&quot;&gt;* boost pump on&lt;br style=&quot;border-color: var(--border-color);&quot;&gt;* HP pump on&lt;br&gt;* run for $X seconds&lt;br&gt;* pumps off" style="rounded=1;whiteSpace=wrap;html=1;fillColor=#dae8fc;strokeColor=#6c8ebf;spacingLeft=10;align=left;verticalAlign=middle;" vertex="1" parent="1">
          <mxGeometry x="-1053.5" y="112.5" width="140" height="155" as="geometry" />
        </mxCell>
        <mxCell id="a4d4Pg_-Ynrb5DIpNWXH-50" value="" style="endArrow=classic;html=1;rounded=0;fontSize=10;exitX=0;exitY=0.5;exitDx=0;exitDy=0;entryX=1;entryY=0.5;entryDx=0;entryDy=0;" edge="1" parent="1" source="a4d4Pg_-Ynrb5DIpNWXH-47" target="a4d4Pg_-Ynrb5DIpNWXH-49">
          <mxGeometry width="50" height="50" relative="1" as="geometry">
            <mxPoint x="-798.5" y="284" as="sourcePoint" />
            <mxPoint x="-798.5" y="240" as="targetPoint" />
          </mxGeometry>
        </mxCell>
        <mxCell id="a4d4Pg_-Ynrb5DIpNWXH-51" value="" style="endArrow=classic;html=1;rounded=0;fontSize=10;exitX=0;exitY=0.5;exitDx=0;exitDy=0;entryX=0.25;entryY=0;entryDx=0;entryDy=0;" edge="1" parent="1" source="a4d4Pg_-Ynrb5DIpNWXH-49" target="a4d4Pg_-Ynrb5DIpNWXH-3">
          <mxGeometry width="50" height="50" relative="1" as="geometry">
            <mxPoint x="-838.5" y="200" as="sourcePoint" />
            <mxPoint x="-883.5" y="200" as="targetPoint" />
            <Array as="points">
              <mxPoint x="-1143.5" y="190" />
              <mxPoint x="-1143.5" y="550" />
              <mxPoint x="-976.5" y="550" />
            </Array>
          </mxGeometry>
        </mxCell>
        <mxCell id="a4d4Pg_-Ynrb5DIpNWXH-52" value="&lt;h1&gt;&lt;font style=&quot;font-size: 36px; font-weight: normal; color: rgb(255, 0, 0);&quot;&gt;Not Updated&lt;/font&gt;&lt;/h1&gt;" style="text;html=1;align=center;verticalAlign=middle;whiteSpace=wrap;rounded=0;strokeWidth=10;" vertex="1" parent="1">
          <mxGeometry x="-1097.5" y="44" width="60" height="30" as="geometry" />
        </mxCell>
      </root>
    </mxGraphModel>
  </diagram>
</mxfile>
